        CONTROL INFO 2.3.16
** GAMBIT NEUTRAL FILE
martaTest4
PROGRAM:                Gambit     VERSION:  2.3.16
 8 Mar 2019    19:25:39 
     NUMNP     NELEM     NGRPS    NBSETS     NDFCD     NDFVL
       221        48         2         1         2         2
ENDOFSECTION
   NODAL COORDINATES 2.3.16
         1   1.60000000000e+00   4.00000000000e-01
         2   1.60000000000e+00  -4.00000000000e-01
         3   1.60000000000e+00   2.00000000000e-01
         4   1.60000000000e+00   0.00000000000e+00
         5   1.60000000000e+00  -2.00000000000e-01
         6   1.60000000000e+00   3.00000000000e-01
         7   1.60000000000e+00   1.00000000000e-01
         8   1.60000000000e+00  -1.00000000000e-01
         9   1.60000000000e+00  -3.00000000000e-01
        10   1.20000000000e+00  -4.00000000000e-01
        11   1.20000000000e+00   4.00000000000e-01
        12   1.20000000000e+00  -2.00000000000e-01
        13   1.20000000000e+00   0.00000000000e+00
        14   1.20000000000e+00   2.00000000000e-01
        15   1.20000000000e+00  -3.00000000000e-01
        16   1.20000000000e+00  -1.00000000000e-01
        17   1.20000000000e+00   1.00000000000e-01
        18   1.20000000000e+00   3.00000000000e-01
        19  -1.20000000000e+00   4.00000000000e-01
        20  -1.20000000000e+00  -4.00000000000e-01
        21  -1.20000000000e+00   2.00000000000e-01
        22  -1.20000000000e+00   0.00000000000e+00
        23  -1.20000000000e+00  -2.00000000000e-01
        24  -1.20000000000e+00   3.00000000000e-01
        25  -1.20000000000e+00   1.00000000000e-01
        26  -1.20000000000e+00  -1.00000000000e-01
        27  -1.20000000000e+00  -3.00000000000e-01
        28  -1.60000000000e+00   4.00000000000e-01
        29  -1.60000000000e+00  -4.00000000000e-01
        30  -1.60000000000e+00   2.00000000000e-01
        31  -1.60000000000e+00   0.00000000000e+00
        32  -1.60000000000e+00  -2.00000000000e-01
        33  -1.60000000000e+00   3.00000000000e-01
        34  -1.60000000000e+00   1.00000000000e-01
        35  -1.60000000000e+00  -1.00000000000e-01
        36  -1.60000000000e+00  -3.00000000000e-01
        37   1.20000000000e+00   6.00000000000e-01
        38  -1.20000000000e+00   6.00000000000e-01
        39   8.00000000000e-01   6.00000000000e-01
        40   4.00000000000e-01   6.00000000000e-01
        41   0.00000000000e+00   6.00000000000e-01
        42  -4.00000000000e-01   6.00000000000e-01
        43  -8.00000000000e-01   6.00000000000e-01
        44   1.00000000000e+00   6.00000000000e-01
        45   6.00000000000e-01   6.00000000000e-01
        46   2.00000000000e-01   6.00000000000e-01
        47  -2.00000000000e-01   6.00000000000e-01
        48  -6.00000000000e-01   6.00000000000e-01
        49  -1.00000000000e+00   6.00000000000e-01
        50  -8.00000000000e-01   4.00000000000e-01
        51  -4.00000000000e-01   4.00000000000e-01
        52   0.00000000000e+00   4.00000000000e-01
        53   4.00000000000e-01   4.00000000000e-01
        54   8.00000000000e-01   4.00000000000e-01
        55  -1.00000000000e+00   4.00000000000e-01
        56  -6.00000000000e-01   4.00000000000e-01
        57  -2.00000000000e-01   4.00000000000e-01
        58   2.00000000000e-01   4.00000000000e-01
        59   6.00000000000e-01   4.00000000000e-01
        60   1.00000000000e+00   4.00000000000e-01
        61   8.00000000000e-01  -4.00000000000e-01
        62   4.00000000000e-01  -4.00000000000e-01
        63   0.00000000000e+00  -4.00000000000e-01
        64  -4.00000000000e-01  -4.00000000000e-01
        65  -8.00000000000e-01  -4.00000000000e-01
        66   1.00000000000e+00  -4.00000000000e-01
        67   6.00000000000e-01  -4.00000000000e-01
        68   2.00000000000e-01  -4.00000000000e-01
        69  -2.00000000000e-01  -4.00000000000e-01
        70  -6.00000000000e-01  -4.00000000000e-01
        71  -1.00000000000e+00  -4.00000000000e-01
        72  -1.20000000000e+00  -6.00000000000e-01
        73   1.20000000000e+00  -6.00000000000e-01
        74  -8.00000000000e-01  -6.00000000000e-01
        75  -4.00000000000e-01  -6.00000000000e-01
        76   0.00000000000e+00  -6.00000000000e-01
        77   4.00000000000e-01  -6.00000000000e-01
        78   8.00000000000e-01  -6.00000000000e-01
        79  -1.00000000000e+00  -6.00000000000e-01
        80  -6.00000000000e-01  -6.00000000000e-01
        81  -2.00000000000e-01  -6.00000000000e-01
        82   2.00000000000e-01  -6.00000000000e-01
        83   6.00000000000e-01  -6.00000000000e-01
        84   1.00000000000e+00  -6.00000000000e-01
        85  -8.00000000000e-01  -2.00000000000e-01
        86  -4.00000000000e-01  -2.00000000000e-01
        87   0.00000000000e+00  -2.00000000000e-01
        88   4.00000000000e-01  -2.00000000000e-01
        89   8.00000000000e-01  -2.00000000000e-01
        90  -8.00000000000e-01   0.00000000000e+00
        91  -4.00000000000e-01   0.00000000000e+00
        92   0.00000000000e+00   0.00000000000e+00
        93   4.00000000000e-01   0.00000000000e+00
        94   8.00000000000e-01   0.00000000000e+00
        95  -8.00000000000e-01   2.00000000000e-01
        96  -4.00000000000e-01   2.00000000000e-01
        97   0.00000000000e+00   2.00000000000e-01
        98   4.00000000000e-01   2.00000000000e-01
        99   8.00000000000e-01   2.00000000000e-01
       100  -1.00000000000e+00  -2.00000000000e-01
       101  -8.00000000000e-01  -3.00000000000e-01
       102  -1.00000000000e+00  -3.00000000000e-01
       103  -1.00000000000e+00   0.00000000000e+00
       104  -8.00000000000e-01  -1.00000000000e-01
       105  -1.00000000000e+00  -1.00000000000e-01
       106  -1.00000000000e+00   2.00000000000e-01
       107  -8.00000000000e-01   1.00000000000e-01
       108  -1.00000000000e+00   1.00000000000e-01
       109  -8.00000000000e-01   3.00000000000e-01
       110  -1.00000000000e+00   3.00000000000e-01
       111  -6.00000000000e-01  -2.00000000000e-01
       112  -4.00000000000e-01  -3.00000000000e-01
       113  -6.00000000000e-01  -3.00000000000e-01
       114  -6.00000000000e-01   0.00000000000e+00
       115  -4.00000000000e-01  -1.00000000000e-01
       116  -6.00000000000e-01  -1.00000000000e-01
       117  -6.00000000000e-01   2.00000000000e-01
       118  -4.00000000000e-01   1.00000000000e-01
       119  -6.00000000000e-01   1.00000000000e-01
       120  -4.00000000000e-01   3.00000000000e-01
       121  -6.00000000000e-01   3.00000000000e-01
       122  -2.00000000000e-01  -2.00000000000e-01
       123   0.00000000000e+00  -3.00000000000e-01
       124  -2.00000000000e-01  -3.00000000000e-01
       125  -2.00000000000e-01   0.00000000000e+00
       126   0.00000000000e+00  -1.00000000000e-01
       127  -2.00000000000e-01  -1.00000000000e-01
       128  -2.00000000000e-01   2.00000000000e-01
       129   0.00000000000e+00   1.00000000000e-01
       130  -2.00000000000e-01   1.00000000000e-01
       131   0.00000000000e+00   3.00000000000e-01
       132  -2.00000000000e-01   3.00000000000e-01
       133   2.00000000000e-01  -2.00000000000e-01
       134   4.00000000000e-01  -3.00000000000e-01
       135   2.00000000000e-01  -3.00000000000e-01
       136   2.00000000000e-01   0.00000000000e+00
       137   4.00000000000e-01  -1.00000000000e-01
       138   2.00000000000e-01  -1.00000000000e-01
       139   2.00000000000e-01   2.00000000000e-01
       140   4.00000000000e-01   1.00000000000e-01
       141   2.00000000000e-01   1.00000000000e-01
       142   4.00000000000e-01   3.00000000000e-01
       143   2.00000000000e-01   3.00000000000e-01
       144   6.00000000000e-01  -2.00000000000e-01
       145   8.00000000000e-01  -3.00000000000e-01
       146   6.00000000000e-01  -3.00000000000e-01
       147   6.00000000000e-01   0.00000000000e+00
       148   8.00000000000e-01  -1.00000000000e-01
       149   6.00000000000e-01  -1.00000000000e-01
       150   6.00000000000e-01   2.00000000000e-01
       151   8.00000000000e-01   1.00000000000e-01
       152   6.00000000000e-01   1.00000000000e-01
       153   8.00000000000e-01   3.00000000000e-01
       154   6.00000000000e-01   3.00000000000e-01
       155   1.00000000000e+00  -2.00000000000e-01
       156   1.00000000000e+00  -3.00000000000e-01
       157   1.00000000000e+00   0.00000000000e+00
       158   1.00000000000e+00  -1.00000000000e-01
       159   1.00000000000e+00   2.00000000000e-01
       160   1.00000000000e+00   1.00000000000e-01
       161   1.00000000000e+00   3.00000000000e-01
       162   1.40000000000e+00   4.00000000000e-01
       163   1.40000000000e+00  -4.00000000000e-01
       164   1.40000000000e+00  -2.00000000000e-01
       165   1.40000000000e+00  -3.00000000000e-01
       166   1.40000000000e+00   0.00000000000e+00
       167   1.40000000000e+00  -1.00000000000e-01
       168   1.40000000000e+00   2.00000000000e-01
       169   1.40000000000e+00   1.00000000000e-01
       170   1.40000000000e+00   3.00000000000e-01
       171  -1.20000000000e+00  -5.00000000000e-01
       172   1.20000000000e+00  -5.00000000000e-01
       173   8.00000000000e-01  -5.00000000000e-01
       174   1.00000000000e+00  -5.00000000000e-01
       175   4.00000000000e-01  -5.00000000000e-01
       176   6.00000000000e-01  -5.00000000000e-01
       177   0.00000000000e+00  -5.00000000000e-01
       178   2.00000000000e-01  -5.00000000000e-01
       179  -4.00000000000e-01  -5.00000000000e-01
       180  -2.00000000000e-01  -5.00000000000e-01
       181  -8.00000000000e-01  -5.00000000000e-01
       182  -6.00000000000e-01  -5.00000000000e-01
       183  -1.00000000000e+00  -5.00000000000e-01
       184  -1.40000000000e+00  -4.00000000000e-01
       185  -1.40000000000e+00   4.00000000000e-01
       186  -1.40000000000e+00   2.00000000000e-01
       187  -1.40000000000e+00   3.00000000000e-01
       188  -1.40000000000e+00   0.00000000000e+00
       189  -1.40000000000e+00   1.00000000000e-01
       190  -1.40000000000e+00  -2.00000000000e-01
       191  -1.40000000000e+00  -1.00000000000e-01
       192  -1.40000000000e+00  -3.00000000000e-01
       193   1.20000000000e+00   5.00000000000e-01
       194  -1.20000000000e+00   5.00000000000e-01
       195  -8.00000000000e-01   5.00000000000e-01
       196  -1.00000000000e+00   5.00000000000e-01
       197  -4.00000000000e-01   5.00000000000e-01
       198  -6.00000000000e-01   5.00000000000e-01
       199   0.00000000000e+00   5.00000000000e-01
       200  -2.00000000000e-01   5.00000000000e-01
       201   4.00000000000e-01   5.00000000000e-01
       202   2.00000000000e-01   5.00000000000e-01
       203   8.00000000000e-01   5.00000000000e-01
       204   6.00000000000e-01   5.00000000000e-01
       205   1.00000000000e+00   5.00000000000e-01
       206  -1.60000000000e+00   6.00000000000e-01
       207  -1.40000000000e+00   6.00000000000e-01
       208  -1.60000000000e+00   5.00000000000e-01
       209  -1.40000000000e+00   5.00000000000e-01
       210  -1.60000000000e+00  -6.00000000000e-01
       211  -1.40000000000e+00  -6.00000000000e-01
       212  -1.60000000000e+00  -5.00000000000e-01
       213  -1.40000000000e+00  -5.00000000000e-01
       214   1.60000000000e+00   6.00000000000e-01
       215   1.40000000000e+00   6.00000000000e-01
       216   1.60000000000e+00   5.00000000000e-01
       217   1.40000000000e+00   5.00000000000e-01
       218   1.60000000000e+00  -6.00000000000e-01
       219   1.60000000000e+00  -5.00000000000e-01
       220   1.40000000000e+00  -6.00000000000e-01
       221   1.40000000000e+00  -5.00000000000e-01
ENDOFSECTION
      ELEMENTS/CELLS 2.3.16
       1  2  9       65     101      85     100      23      27      20
                     71     102
       2  2  9       85     104      90     103      22      26      23
                    100     105
       3  2  9       90     107      95     106      21      25      22
                    103     108
       4  2  9       95     109      50      55      19      24      21
                    106     110
       5  2  9       64     112      86     111      85     101      65
                     70     113
       6  2  9       86     115      91     114      90     104      85
                    111     116
       7  2  9       91     118      96     117      95     107      90
                    114     119
       8  2  9       96     120      51      56      50     109      95
                    117     121
       9  2  9       63     123      87     122      86     112      64
                     69     124
      10  2  9       87     126      92     125      91     115      86
                    122     127
      11  2  9       92     129      97     128      96     118      91
                    125     130
      12  2  9       97     131      52      57      51     120      96
                    128     132
      13  2  9       62     134      88     133      87     123      63
                     68     135
      14  2  9       88     137      93     136      92     126      87
                    133     138
      15  2  9       93     140      98     139      97     129      92
                    136     141
      16  2  9       98     142      53      58      52     131      97
                    139     143
      17  2  9       61     145      89     144      88     134      62
                     67     146
      18  2  9       89     148      94     147      93     137      88
                    144     149
      19  2  9       94     151      99     150      98     140      93
                    147     152
      20  2  9       99     153      54      59      53     142      98
                    150     154
      21  2  9       10      15      12     155      89     145      61
                     66     156
      22  2  9       12      16      13     157      94     148      89
                    155     158
      23  2  9       13      17      14     159      99     151      94
                    157     160
      24  2  9       14      18      11      60      54     153      99
                    159     161
      25  2  9        5     164      12      15      10     163       2
                      9     165
      26  2  9        4     166      13      16      12     164       5
                      8     167
      27  2  9        3     168      14      17      13     166       4
                      7     169
      28  2  9        1     162      11      18      14     168       3
                      6     170
      29  2  9       73     172      10      66      61     173      78
                     84     174
      30  2  9       78     173      61      67      62     175      77
                     83     176
      31  2  9       77     175      62      68      63     177      76
                     82     178
      32  2  9       76     177      63      69      64     179      75
                     81     180
      33  2  9       75     179      64      70      65     181      74
                     80     182
      34  2  9       74     181      65      71      20     171      72
                     79     183
      35  2  9       30     186      21      24      19     185      28
                     33     187
      36  2  9       31     188      22      25      21     186      30
                     34     189
      37  2  9       32     190      23      26      22     188      31
                     35     191
      38  2  9       29     184      20      27      23     190      32
                     36     192
      39  2  9       38     194      19      55      50     195      43
                     49     196
      40  2  9       43     195      50      56      51     197      42
                     48     198
      41  2  9       42     197      51      57      52     199      41
                     47     200
      42  2  9       41     199      52      58      53     201      40
                     46     202
      43  2  9       40     201      53      59      54     203      39
                     45     204
      44  2  9       39     203      54      60      11     193      37
                     44     205
      45  2  9       28     185      19     194      38     207     206
                    208     209
      46  2  9      210     211      72     171      20     184      29
                    212     213
      47  2  9        1     216     214     215      37     193      11
                    162     217
      48  2  9      218     219       2     163      10     172      73
                    220     221
ENDOFSECTION
       ELEMENT GROUP 2.3.16
GROUP:          1 ELEMENTS:         24 MATERIAL:          4 NFLAGS:          1
                               5
       0
      45      35      36      37      38      46      29      30      31      32
      33      34      48      25      26      27      28      47      39      40
      41      42      43      44
ENDOFSECTION
       ELEMENT GROUP 2.3.16
GROUP:          2 ELEMENTS:         24 MATERIAL:          2 NFLAGS:          1
                               7
       0
       1       2       3       4       5       6       7       8       9      10
      11      12      13      14      15      16      17      18      19      20
      21      22      23      24
ENDOFSECTION
 BOUNDARY CONDITIONS 2.3.16
                               1       1      28       0       6
        45    2    3
        45    2    4
        35    2    4
        36    2    4
        37    2    4
        38    2    4
        46    2    4
        46    2    1
        34    2    4
        33    2    4
        32    2    4
        31    2    4
        30    2    4
        29    2    4
        48    2    4
        48    2    1
        28    2    4
        27    2    4
        26    2    4
        25    2    4
        47    2    1
        47    2    2
        44    2    4
        43    2    4
        42    2    4
        41    2    4
        40    2    4
        39    2    4
ENDOFSECTION
