        CONTROL INFO 2.3.16
** GAMBIT NEUTRAL FILE
martaTest4_collar1p0
PROGRAM:                Gambit     VERSION:  2.3.16
 8 Mar 2019    19:25:39 
     NUMNP     NELEM     NGRPS    NBSETS     NDFCD     NDFVL
       957       224         2         1         2         2
ENDOFSECTION
   NODAL COORDINATES 2.3.16
         1  -1.60000000000e+00  -1.40000000000e+00
         2  -1.50000000000e+00  -1.40000000000e+00
         3  -1.40000000000e+00  -1.40000000000e+00
         4  -1.30000000000e+00  -1.40000000000e+00
         5  -1.20000000000e+00  -1.40000000000e+00
         6  -1.10000000000e+00  -1.40000000000e+00
         7  -1.00000000000e+00  -1.40000000000e+00
         8  -9.00000000000e-01  -1.40000000000e+00
         9  -8.00000000000e-01  -1.40000000000e+00
        10  -7.00000000000e-01  -1.40000000000e+00
        11  -6.00000000000e-01  -1.40000000000e+00
        12  -5.00000000000e-01  -1.40000000000e+00
        13  -4.00000000000e-01  -1.40000000000e+00
        14  -3.00000000000e-01  -1.40000000000e+00
        15  -2.00000000000e-01  -1.40000000000e+00
        16  -1.00000000000e-01  -1.40000000000e+00
        17   0.00000000000e+00  -1.40000000000e+00
        18   1.00000000000e-01  -1.40000000000e+00
        19   2.00000000000e-01  -1.40000000000e+00
        20   3.00000000000e-01  -1.40000000000e+00
        21   4.00000000000e-01  -1.40000000000e+00
        22   5.00000000000e-01  -1.40000000000e+00
        23   6.00000000000e-01  -1.40000000000e+00
        24   7.00000000000e-01  -1.40000000000e+00
        25   8.00000000000e-01  -1.40000000000e+00
        26   9.00000000000e-01  -1.40000000000e+00
        27   1.00000000000e+00  -1.40000000000e+00
        28   1.10000000000e+00  -1.40000000000e+00
        29   1.20000000000e+00  -1.40000000000e+00
        30   1.30000000000e+00  -1.40000000000e+00
        31   1.40000000000e+00  -1.40000000000e+00
        32   1.50000000000e+00  -1.40000000000e+00
        33   1.60000000000e+00  -1.40000000000e+00
        34  -1.60000000000e+00  -1.30000000000e+00
        35  -1.50000000000e+00  -1.30000000000e+00
        36  -1.40000000000e+00  -1.30000000000e+00
        37  -1.30000000000e+00  -1.30000000000e+00
        38  -1.20000000000e+00  -1.30000000000e+00
        39  -1.10000000000e+00  -1.30000000000e+00
        40  -1.00000000000e+00  -1.30000000000e+00
        41  -9.00000000000e-01  -1.30000000000e+00
        42  -8.00000000000e-01  -1.30000000000e+00
        43  -7.00000000000e-01  -1.30000000000e+00
        44  -6.00000000000e-01  -1.30000000000e+00
        45  -5.00000000000e-01  -1.30000000000e+00
        46  -4.00000000000e-01  -1.30000000000e+00
        47  -3.00000000000e-01  -1.30000000000e+00
        48  -2.00000000000e-01  -1.30000000000e+00
        49  -1.00000000000e-01  -1.30000000000e+00
        50   0.00000000000e+00  -1.30000000000e+00
        51   1.00000000000e-01  -1.30000000000e+00
        52   2.00000000000e-01  -1.30000000000e+00
        53   3.00000000000e-01  -1.30000000000e+00
        54   4.00000000000e-01  -1.30000000000e+00
        55   5.00000000000e-01  -1.30000000000e+00
        56   6.00000000000e-01  -1.30000000000e+00
        57   7.00000000000e-01  -1.30000000000e+00
        58   8.00000000000e-01  -1.30000000000e+00
        59   9.00000000000e-01  -1.30000000000e+00
        60   1.00000000000e+00  -1.30000000000e+00
        61   1.10000000000e+00  -1.30000000000e+00
        62   1.20000000000e+00  -1.30000000000e+00
        63   1.30000000000e+00  -1.30000000000e+00
        64   1.40000000000e+00  -1.30000000000e+00
        65   1.50000000000e+00  -1.30000000000e+00
        66   1.60000000000e+00  -1.30000000000e+00
        67  -1.60000000000e+00  -1.20000000000e+00
        68  -1.50000000000e+00  -1.20000000000e+00
        69  -1.40000000000e+00  -1.20000000000e+00
        70  -1.30000000000e+00  -1.20000000000e+00
        71  -1.20000000000e+00  -1.20000000000e+00
        72  -1.10000000000e+00  -1.20000000000e+00
        73  -1.00000000000e+00  -1.20000000000e+00
        74  -9.00000000000e-01  -1.20000000000e+00
        75  -8.00000000000e-01  -1.20000000000e+00
        76  -7.00000000000e-01  -1.20000000000e+00
        77  -6.00000000000e-01  -1.20000000000e+00
        78  -5.00000000000e-01  -1.20000000000e+00
        79  -4.00000000000e-01  -1.20000000000e+00
        80  -3.00000000000e-01  -1.20000000000e+00
        81  -2.00000000000e-01  -1.20000000000e+00
        82  -1.00000000000e-01  -1.20000000000e+00
        83   0.00000000000e+00  -1.20000000000e+00
        84   1.00000000000e-01  -1.20000000000e+00
        85   2.00000000000e-01  -1.20000000000e+00
        86   3.00000000000e-01  -1.20000000000e+00
        87   4.00000000000e-01  -1.20000000000e+00
        88   5.00000000000e-01  -1.20000000000e+00
        89   6.00000000000e-01  -1.20000000000e+00
        90   7.00000000000e-01  -1.20000000000e+00
        91   8.00000000000e-01  -1.20000000000e+00
        92   9.00000000000e-01  -1.20000000000e+00
        93   1.00000000000e+00  -1.20000000000e+00
        94   1.10000000000e+00  -1.20000000000e+00
        95   1.20000000000e+00  -1.20000000000e+00
        96   1.30000000000e+00  -1.20000000000e+00
        97   1.40000000000e+00  -1.20000000000e+00
        98   1.50000000000e+00  -1.20000000000e+00
        99   1.60000000000e+00  -1.20000000000e+00
       100  -1.60000000000e+00  -1.10000000000e+00
       101  -1.50000000000e+00  -1.10000000000e+00
       102  -1.40000000000e+00  -1.10000000000e+00
       103  -1.30000000000e+00  -1.10000000000e+00
       104  -1.20000000000e+00  -1.10000000000e+00
       105  -1.10000000000e+00  -1.10000000000e+00
       106  -1.00000000000e+00  -1.10000000000e+00
       107  -9.00000000000e-01  -1.10000000000e+00
       108  -8.00000000000e-01  -1.10000000000e+00
       109  -7.00000000000e-01  -1.10000000000e+00
       110  -6.00000000000e-01  -1.10000000000e+00
       111  -5.00000000000e-01  -1.10000000000e+00
       112  -4.00000000000e-01  -1.10000000000e+00
       113  -3.00000000000e-01  -1.10000000000e+00
       114  -2.00000000000e-01  -1.10000000000e+00
       115  -1.00000000000e-01  -1.10000000000e+00
       116   0.00000000000e+00  -1.10000000000e+00
       117   1.00000000000e-01  -1.10000000000e+00
       118   2.00000000000e-01  -1.10000000000e+00
       119   3.00000000000e-01  -1.10000000000e+00
       120   4.00000000000e-01  -1.10000000000e+00
       121   5.00000000000e-01  -1.10000000000e+00
       122   6.00000000000e-01  -1.10000000000e+00
       123   7.00000000000e-01  -1.10000000000e+00
       124   8.00000000000e-01  -1.10000000000e+00
       125   9.00000000000e-01  -1.10000000000e+00
       126   1.00000000000e+00  -1.10000000000e+00
       127   1.10000000000e+00  -1.10000000000e+00
       128   1.20000000000e+00  -1.10000000000e+00
       129   1.30000000000e+00  -1.10000000000e+00
       130   1.40000000000e+00  -1.10000000000e+00
       131   1.50000000000e+00  -1.10000000000e+00
       132   1.60000000000e+00  -1.10000000000e+00
       133  -1.60000000000e+00  -1.00000000000e+00
       134  -1.50000000000e+00  -1.00000000000e+00
       135  -1.40000000000e+00  -1.00000000000e+00
       136  -1.30000000000e+00  -1.00000000000e+00
       137  -1.20000000000e+00  -1.00000000000e+00
       138  -1.10000000000e+00  -1.00000000000e+00
       139  -1.00000000000e+00  -1.00000000000e+00
       140  -9.00000000000e-01  -1.00000000000e+00
       141  -8.00000000000e-01  -1.00000000000e+00
       142  -7.00000000000e-01  -1.00000000000e+00
       143  -6.00000000000e-01  -1.00000000000e+00
       144  -5.00000000000e-01  -1.00000000000e+00
       145  -4.00000000000e-01  -1.00000000000e+00
       146  -3.00000000000e-01  -1.00000000000e+00
       147  -2.00000000000e-01  -1.00000000000e+00
       148  -1.00000000000e-01  -1.00000000000e+00
       149   0.00000000000e+00  -1.00000000000e+00
       150   1.00000000000e-01  -1.00000000000e+00
       151   2.00000000000e-01  -1.00000000000e+00
       152   3.00000000000e-01  -1.00000000000e+00
       153   4.00000000000e-01  -1.00000000000e+00
       154   5.00000000000e-01  -1.00000000000e+00
       155   6.00000000000e-01  -1.00000000000e+00
       156   7.00000000000e-01  -1.00000000000e+00
       157   8.00000000000e-01  -1.00000000000e+00
       158   9.00000000000e-01  -1.00000000000e+00
       159   1.00000000000e+00  -1.00000000000e+00
       160   1.10000000000e+00  -1.00000000000e+00
       161   1.20000000000e+00  -1.00000000000e+00
       162   1.30000000000e+00  -1.00000000000e+00
       163   1.40000000000e+00  -1.00000000000e+00
       164   1.50000000000e+00  -1.00000000000e+00
       165   1.60000000000e+00  -1.00000000000e+00
       166  -1.60000000000e+00  -9.00000000000e-01
       167  -1.50000000000e+00  -9.00000000000e-01
       168  -1.40000000000e+00  -9.00000000000e-01
       169  -1.30000000000e+00  -9.00000000000e-01
       170  -1.20000000000e+00  -9.00000000000e-01
       171  -1.10000000000e+00  -9.00000000000e-01
       172  -1.00000000000e+00  -9.00000000000e-01
       173  -9.00000000000e-01  -9.00000000000e-01
       174  -8.00000000000e-01  -9.00000000000e-01
       175  -7.00000000000e-01  -9.00000000000e-01
       176  -6.00000000000e-01  -9.00000000000e-01
       177  -5.00000000000e-01  -9.00000000000e-01
       178  -4.00000000000e-01  -9.00000000000e-01
       179  -3.00000000000e-01  -9.00000000000e-01
       180  -2.00000000000e-01  -9.00000000000e-01
       181  -1.00000000000e-01  -9.00000000000e-01
       182   0.00000000000e+00  -9.00000000000e-01
       183   1.00000000000e-01  -9.00000000000e-01
       184   2.00000000000e-01  -9.00000000000e-01
       185   3.00000000000e-01  -9.00000000000e-01
       186   4.00000000000e-01  -9.00000000000e-01
       187   5.00000000000e-01  -9.00000000000e-01
       188   6.00000000000e-01  -9.00000000000e-01
       189   7.00000000000e-01  -9.00000000000e-01
       190   8.00000000000e-01  -9.00000000000e-01
       191   9.00000000000e-01  -9.00000000000e-01
       192   1.00000000000e+00  -9.00000000000e-01
       193   1.10000000000e+00  -9.00000000000e-01
       194   1.20000000000e+00  -9.00000000000e-01
       195   1.30000000000e+00  -9.00000000000e-01
       196   1.40000000000e+00  -9.00000000000e-01
       197   1.50000000000e+00  -9.00000000000e-01
       198   1.60000000000e+00  -9.00000000000e-01
       199  -1.60000000000e+00  -8.00000000000e-01
       200  -1.50000000000e+00  -8.00000000000e-01
       201  -1.40000000000e+00  -8.00000000000e-01
       202  -1.30000000000e+00  -8.00000000000e-01
       203  -1.20000000000e+00  -8.00000000000e-01
       204  -1.10000000000e+00  -8.00000000000e-01
       205  -1.00000000000e+00  -8.00000000000e-01
       206  -9.00000000000e-01  -8.00000000000e-01
       207  -8.00000000000e-01  -8.00000000000e-01
       208  -7.00000000000e-01  -8.00000000000e-01
       209  -6.00000000000e-01  -8.00000000000e-01
       210  -5.00000000000e-01  -8.00000000000e-01
       211  -4.00000000000e-01  -8.00000000000e-01
       212  -3.00000000000e-01  -8.00000000000e-01
       213  -2.00000000000e-01  -8.00000000000e-01
       214  -1.00000000000e-01  -8.00000000000e-01
       215   0.00000000000e+00  -8.00000000000e-01
       216   1.00000000000e-01  -8.00000000000e-01
       217   2.00000000000e-01  -8.00000000000e-01
       218   3.00000000000e-01  -8.00000000000e-01
       219   4.00000000000e-01  -8.00000000000e-01
       220   5.00000000000e-01  -8.00000000000e-01
       221   6.00000000000e-01  -8.00000000000e-01
       222   7.00000000000e-01  -8.00000000000e-01
       223   8.00000000000e-01  -8.00000000000e-01
       224   9.00000000000e-01  -8.00000000000e-01
       225   1.00000000000e+00  -8.00000000000e-01
       226   1.10000000000e+00  -8.00000000000e-01
       227   1.20000000000e+00  -8.00000000000e-01
       228   1.30000000000e+00  -8.00000000000e-01
       229   1.40000000000e+00  -8.00000000000e-01
       230   1.50000000000e+00  -8.00000000000e-01
       231   1.60000000000e+00  -8.00000000000e-01
       232  -1.60000000000e+00  -7.00000000000e-01
       233  -1.50000000000e+00  -7.00000000000e-01
       234  -1.40000000000e+00  -7.00000000000e-01
       235  -1.30000000000e+00  -7.00000000000e-01
       236  -1.20000000000e+00  -7.00000000000e-01
       237  -1.10000000000e+00  -7.00000000000e-01
       238  -1.00000000000e+00  -7.00000000000e-01
       239  -9.00000000000e-01  -7.00000000000e-01
       240  -8.00000000000e-01  -7.00000000000e-01
       241  -7.00000000000e-01  -7.00000000000e-01
       242  -6.00000000000e-01  -7.00000000000e-01
       243  -5.00000000000e-01  -7.00000000000e-01
       244  -4.00000000000e-01  -7.00000000000e-01
       245  -3.00000000000e-01  -7.00000000000e-01
       246  -2.00000000000e-01  -7.00000000000e-01
       247  -1.00000000000e-01  -7.00000000000e-01
       248   0.00000000000e+00  -7.00000000000e-01
       249   1.00000000000e-01  -7.00000000000e-01
       250   2.00000000000e-01  -7.00000000000e-01
       251   3.00000000000e-01  -7.00000000000e-01
       252   4.00000000000e-01  -7.00000000000e-01
       253   5.00000000000e-01  -7.00000000000e-01
       254   6.00000000000e-01  -7.00000000000e-01
       255   7.00000000000e-01  -7.00000000000e-01
       256   8.00000000000e-01  -7.00000000000e-01
       257   9.00000000000e-01  -7.00000000000e-01
       258   1.00000000000e+00  -7.00000000000e-01
       259   1.10000000000e+00  -7.00000000000e-01
       260   1.20000000000e+00  -7.00000000000e-01
       261   1.30000000000e+00  -7.00000000000e-01
       262   1.40000000000e+00  -7.00000000000e-01
       263   1.50000000000e+00  -7.00000000000e-01
       264   1.60000000000e+00  -7.00000000000e-01
       265  -1.60000000000e+00  -6.00000000000e-01
       266  -1.50000000000e+00  -6.00000000000e-01
       267  -1.40000000000e+00  -6.00000000000e-01
       268  -1.30000000000e+00  -6.00000000000e-01
       269  -1.20000000000e+00  -6.00000000000e-01
       270  -1.10000000000e+00  -6.00000000000e-01
       271  -1.00000000000e+00  -6.00000000000e-01
       272  -9.00000000000e-01  -6.00000000000e-01
       273  -8.00000000000e-01  -6.00000000000e-01
       274  -7.00000000000e-01  -6.00000000000e-01
       275  -6.00000000000e-01  -6.00000000000e-01
       276  -5.00000000000e-01  -6.00000000000e-01
       277  -4.00000000000e-01  -6.00000000000e-01
       278  -3.00000000000e-01  -6.00000000000e-01
       279  -2.00000000000e-01  -6.00000000000e-01
       280  -1.00000000000e-01  -6.00000000000e-01
       281   0.00000000000e+00  -6.00000000000e-01
       282   1.00000000000e-01  -6.00000000000e-01
       283   2.00000000000e-01  -6.00000000000e-01
       284   3.00000000000e-01  -6.00000000000e-01
       285   4.00000000000e-01  -6.00000000000e-01
       286   5.00000000000e-01  -6.00000000000e-01
       287   6.00000000000e-01  -6.00000000000e-01
       288   7.00000000000e-01  -6.00000000000e-01
       289   8.00000000000e-01  -6.00000000000e-01
       290   9.00000000000e-01  -6.00000000000e-01
       291   1.00000000000e+00  -6.00000000000e-01
       292   1.10000000000e+00  -6.00000000000e-01
       293   1.20000000000e+00  -6.00000000000e-01
       294   1.30000000000e+00  -6.00000000000e-01
       295   1.40000000000e+00  -6.00000000000e-01
       296   1.50000000000e+00  -6.00000000000e-01
       297   1.60000000000e+00  -6.00000000000e-01
       298  -1.60000000000e+00  -5.00000000000e-01
       299  -1.50000000000e+00  -5.00000000000e-01
       300  -1.40000000000e+00  -5.00000000000e-01
       301  -1.30000000000e+00  -5.00000000000e-01
       302  -1.20000000000e+00  -5.00000000000e-01
       303  -1.10000000000e+00  -5.00000000000e-01
       304  -1.00000000000e+00  -5.00000000000e-01
       305  -9.00000000000e-01  -5.00000000000e-01
       306  -8.00000000000e-01  -5.00000000000e-01
       307  -7.00000000000e-01  -5.00000000000e-01
       308  -6.00000000000e-01  -5.00000000000e-01
       309  -5.00000000000e-01  -5.00000000000e-01
       310  -4.00000000000e-01  -5.00000000000e-01
       311  -3.00000000000e-01  -5.00000000000e-01
       312  -2.00000000000e-01  -5.00000000000e-01
       313  -1.00000000000e-01  -5.00000000000e-01
       314   0.00000000000e+00  -5.00000000000e-01
       315   1.00000000000e-01  -5.00000000000e-01
       316   2.00000000000e-01  -5.00000000000e-01
       317   3.00000000000e-01  -5.00000000000e-01
       318   4.00000000000e-01  -5.00000000000e-01
       319   5.00000000000e-01  -5.00000000000e-01
       320   6.00000000000e-01  -5.00000000000e-01
       321   7.00000000000e-01  -5.00000000000e-01
       322   8.00000000000e-01  -5.00000000000e-01
       323   9.00000000000e-01  -5.00000000000e-01
       324   1.00000000000e+00  -5.00000000000e-01
       325   1.10000000000e+00  -5.00000000000e-01
       326   1.20000000000e+00  -5.00000000000e-01
       327   1.30000000000e+00  -5.00000000000e-01
       328   1.40000000000e+00  -5.00000000000e-01
       329   1.50000000000e+00  -5.00000000000e-01
       330   1.60000000000e+00  -5.00000000000e-01
       331  -1.60000000000e+00  -4.00000000000e-01
       332  -1.50000000000e+00  -4.00000000000e-01
       333  -1.40000000000e+00  -4.00000000000e-01
       334  -1.30000000000e+00  -4.00000000000e-01
       335  -1.20000000000e+00  -4.00000000000e-01
       336  -1.10000000000e+00  -4.00000000000e-01
       337  -1.00000000000e+00  -4.00000000000e-01
       338  -9.00000000000e-01  -4.00000000000e-01
       339  -8.00000000000e-01  -4.00000000000e-01
       340  -7.00000000000e-01  -4.00000000000e-01
       341  -6.00000000000e-01  -4.00000000000e-01
       342  -5.00000000000e-01  -4.00000000000e-01
       343  -4.00000000000e-01  -4.00000000000e-01
       344  -3.00000000000e-01  -4.00000000000e-01
       345  -2.00000000000e-01  -4.00000000000e-01
       346  -1.00000000000e-01  -4.00000000000e-01
       347   0.00000000000e+00  -4.00000000000e-01
       348   1.00000000000e-01  -4.00000000000e-01
       349   2.00000000000e-01  -4.00000000000e-01
       350   3.00000000000e-01  -4.00000000000e-01
       351   4.00000000000e-01  -4.00000000000e-01
       352   5.00000000000e-01  -4.00000000000e-01
       353   6.00000000000e-01  -4.00000000000e-01
       354   7.00000000000e-01  -4.00000000000e-01
       355   8.00000000000e-01  -4.00000000000e-01
       356   9.00000000000e-01  -4.00000000000e-01
       357   1.00000000000e+00  -4.00000000000e-01
       358   1.10000000000e+00  -4.00000000000e-01
       359   1.20000000000e+00  -4.00000000000e-01
       360   1.30000000000e+00  -4.00000000000e-01
       361   1.40000000000e+00  -4.00000000000e-01
       362   1.50000000000e+00  -4.00000000000e-01
       363   1.60000000000e+00  -4.00000000000e-01
       364  -1.60000000000e+00  -3.00000000000e-01
       365  -1.50000000000e+00  -3.00000000000e-01
       366  -1.40000000000e+00  -3.00000000000e-01
       367  -1.30000000000e+00  -3.00000000000e-01
       368  -1.20000000000e+00  -3.00000000000e-01
       369  -1.10000000000e+00  -3.00000000000e-01
       370  -1.00000000000e+00  -3.00000000000e-01
       371  -9.00000000000e-01  -3.00000000000e-01
       372  -8.00000000000e-01  -3.00000000000e-01
       373  -7.00000000000e-01  -3.00000000000e-01
       374  -6.00000000000e-01  -3.00000000000e-01
       375  -5.00000000000e-01  -3.00000000000e-01
       376  -4.00000000000e-01  -3.00000000000e-01
       377  -3.00000000000e-01  -3.00000000000e-01
       378  -2.00000000000e-01  -3.00000000000e-01
       379  -1.00000000000e-01  -3.00000000000e-01
       380   0.00000000000e+00  -3.00000000000e-01
       381   1.00000000000e-01  -3.00000000000e-01
       382   2.00000000000e-01  -3.00000000000e-01
       383   3.00000000000e-01  -3.00000000000e-01
       384   4.00000000000e-01  -3.00000000000e-01
       385   5.00000000000e-01  -3.00000000000e-01
       386   6.00000000000e-01  -3.00000000000e-01
       387   7.00000000000e-01  -3.00000000000e-01
       388   8.00000000000e-01  -3.00000000000e-01
       389   9.00000000000e-01  -3.00000000000e-01
       390   1.00000000000e+00  -3.00000000000e-01
       391   1.10000000000e+00  -3.00000000000e-01
       392   1.20000000000e+00  -3.00000000000e-01
       393   1.30000000000e+00  -3.00000000000e-01
       394   1.40000000000e+00  -3.00000000000e-01
       395   1.50000000000e+00  -3.00000000000e-01
       396   1.60000000000e+00  -3.00000000000e-01
       397  -1.60000000000e+00  -2.00000000000e-01
       398  -1.50000000000e+00  -2.00000000000e-01
       399  -1.40000000000e+00  -2.00000000000e-01
       400  -1.30000000000e+00  -2.00000000000e-01
       401  -1.20000000000e+00  -2.00000000000e-01
       402  -1.10000000000e+00  -2.00000000000e-01
       403  -1.00000000000e+00  -2.00000000000e-01
       404  -9.00000000000e-01  -2.00000000000e-01
       405  -8.00000000000e-01  -2.00000000000e-01
       406  -7.00000000000e-01  -2.00000000000e-01
       407  -6.00000000000e-01  -2.00000000000e-01
       408  -5.00000000000e-01  -2.00000000000e-01
       409  -4.00000000000e-01  -2.00000000000e-01
       410  -3.00000000000e-01  -2.00000000000e-01
       411  -2.00000000000e-01  -2.00000000000e-01
       412  -1.00000000000e-01  -2.00000000000e-01
       413   0.00000000000e+00  -2.00000000000e-01
       414   1.00000000000e-01  -2.00000000000e-01
       415   2.00000000000e-01  -2.00000000000e-01
       416   3.00000000000e-01  -2.00000000000e-01
       417   4.00000000000e-01  -2.00000000000e-01
       418   5.00000000000e-01  -2.00000000000e-01
       419   6.00000000000e-01  -2.00000000000e-01
       420   7.00000000000e-01  -2.00000000000e-01
       421   8.00000000000e-01  -2.00000000000e-01
       422   9.00000000000e-01  -2.00000000000e-01
       423   1.00000000000e+00  -2.00000000000e-01
       424   1.10000000000e+00  -2.00000000000e-01
       425   1.20000000000e+00  -2.00000000000e-01
       426   1.30000000000e+00  -2.00000000000e-01
       427   1.40000000000e+00  -2.00000000000e-01
       428   1.50000000000e+00  -2.00000000000e-01
       429   1.60000000000e+00  -2.00000000000e-01
       430  -1.60000000000e+00  -1.00000000000e-01
       431  -1.50000000000e+00  -1.00000000000e-01
       432  -1.40000000000e+00  -1.00000000000e-01
       433  -1.30000000000e+00  -1.00000000000e-01
       434  -1.20000000000e+00  -1.00000000000e-01
       435  -1.10000000000e+00  -1.00000000000e-01
       436  -1.00000000000e+00  -1.00000000000e-01
       437  -9.00000000000e-01  -1.00000000000e-01
       438  -8.00000000000e-01  -1.00000000000e-01
       439  -7.00000000000e-01  -1.00000000000e-01
       440  -6.00000000000e-01  -1.00000000000e-01
       441  -5.00000000000e-01  -1.00000000000e-01
       442  -4.00000000000e-01  -1.00000000000e-01
       443  -3.00000000000e-01  -1.00000000000e-01
       444  -2.00000000000e-01  -1.00000000000e-01
       445  -1.00000000000e-01  -1.00000000000e-01
       446   0.00000000000e+00  -1.00000000000e-01
       447   1.00000000000e-01  -1.00000000000e-01
       448   2.00000000000e-01  -1.00000000000e-01
       449   3.00000000000e-01  -1.00000000000e-01
       450   4.00000000000e-01  -1.00000000000e-01
       451   5.00000000000e-01  -1.00000000000e-01
       452   6.00000000000e-01  -1.00000000000e-01
       453   7.00000000000e-01  -1.00000000000e-01
       454   8.00000000000e-01  -1.00000000000e-01
       455   9.00000000000e-01  -1.00000000000e-01
       456   1.00000000000e+00  -1.00000000000e-01
       457   1.10000000000e+00  -1.00000000000e-01
       458   1.20000000000e+00  -1.00000000000e-01
       459   1.30000000000e+00  -1.00000000000e-01
       460   1.40000000000e+00  -1.00000000000e-01
       461   1.50000000000e+00  -1.00000000000e-01
       462   1.60000000000e+00  -1.00000000000e-01
       463  -1.60000000000e+00   2.22044604925e-16
       464  -1.50000000000e+00   2.22044604925e-16
       465  -1.40000000000e+00   2.22044604925e-16
       466  -1.30000000000e+00   2.22044604925e-16
       467  -1.20000000000e+00   2.22044604925e-16
       468  -1.10000000000e+00   2.22044604925e-16
       469  -1.00000000000e+00   2.22044604925e-16
       470  -9.00000000000e-01   2.22044604925e-16
       471  -8.00000000000e-01   2.22044604925e-16
       472  -7.00000000000e-01   2.22044604925e-16
       473  -6.00000000000e-01   2.22044604925e-16
       474  -5.00000000000e-01   2.22044604925e-16
       475  -4.00000000000e-01   2.22044604925e-16
       476  -3.00000000000e-01   2.22044604925e-16
       477  -2.00000000000e-01   2.22044604925e-16
       478  -1.00000000000e-01   2.22044604925e-16
       479   0.00000000000e+00   2.22044604925e-16
       480   1.00000000000e-01   2.22044604925e-16
       481   2.00000000000e-01   2.22044604925e-16
       482   3.00000000000e-01   2.22044604925e-16
       483   4.00000000000e-01   2.22044604925e-16
       484   5.00000000000e-01   2.22044604925e-16
       485   6.00000000000e-01   2.22044604925e-16
       486   7.00000000000e-01   2.22044604925e-16
       487   8.00000000000e-01   2.22044604925e-16
       488   9.00000000000e-01   2.22044604925e-16
       489   1.00000000000e+00   2.22044604925e-16
       490   1.10000000000e+00   2.22044604925e-16
       491   1.20000000000e+00   2.22044604925e-16
       492   1.30000000000e+00   2.22044604925e-16
       493   1.40000000000e+00   2.22044604925e-16
       494   1.50000000000e+00   2.22044604925e-16
       495   1.60000000000e+00   2.22044604925e-16
       496  -1.60000000000e+00   1.00000000000e-01
       497  -1.50000000000e+00   1.00000000000e-01
       498  -1.40000000000e+00   1.00000000000e-01
       499  -1.30000000000e+00   1.00000000000e-01
       500  -1.20000000000e+00   1.00000000000e-01
       501  -1.10000000000e+00   1.00000000000e-01
       502  -1.00000000000e+00   1.00000000000e-01
       503  -9.00000000000e-01   1.00000000000e-01
       504  -8.00000000000e-01   1.00000000000e-01
       505  -7.00000000000e-01   1.00000000000e-01
       506  -6.00000000000e-01   1.00000000000e-01
       507  -5.00000000000e-01   1.00000000000e-01
       508  -4.00000000000e-01   1.00000000000e-01
       509  -3.00000000000e-01   1.00000000000e-01
       510  -2.00000000000e-01   1.00000000000e-01
       511  -1.00000000000e-01   1.00000000000e-01
       512   0.00000000000e+00   1.00000000000e-01
       513   1.00000000000e-01   1.00000000000e-01
       514   2.00000000000e-01   1.00000000000e-01
       515   3.00000000000e-01   1.00000000000e-01
       516   4.00000000000e-01   1.00000000000e-01
       517   5.00000000000e-01   1.00000000000e-01
       518   6.00000000000e-01   1.00000000000e-01
       519   7.00000000000e-01   1.00000000000e-01
       520   8.00000000000e-01   1.00000000000e-01
       521   9.00000000000e-01   1.00000000000e-01
       522   1.00000000000e+00   1.00000000000e-01
       523   1.10000000000e+00   1.00000000000e-01
       524   1.20000000000e+00   1.00000000000e-01
       525   1.30000000000e+00   1.00000000000e-01
       526   1.40000000000e+00   1.00000000000e-01
       527   1.50000000000e+00   1.00000000000e-01
       528   1.60000000000e+00   1.00000000000e-01
       529  -1.60000000000e+00   2.00000000000e-01
       530  -1.50000000000e+00   2.00000000000e-01
       531  -1.40000000000e+00   2.00000000000e-01
       532  -1.30000000000e+00   2.00000000000e-01
       533  -1.20000000000e+00   2.00000000000e-01
       534  -1.10000000000e+00   2.00000000000e-01
       535  -1.00000000000e+00   2.00000000000e-01
       536  -9.00000000000e-01   2.00000000000e-01
       537  -8.00000000000e-01   2.00000000000e-01
       538  -7.00000000000e-01   2.00000000000e-01
       539  -6.00000000000e-01   2.00000000000e-01
       540  -5.00000000000e-01   2.00000000000e-01
       541  -4.00000000000e-01   2.00000000000e-01
       542  -3.00000000000e-01   2.00000000000e-01
       543  -2.00000000000e-01   2.00000000000e-01
       544  -1.00000000000e-01   2.00000000000e-01
       545   0.00000000000e+00   2.00000000000e-01
       546   1.00000000000e-01   2.00000000000e-01
       547   2.00000000000e-01   2.00000000000e-01
       548   3.00000000000e-01   2.00000000000e-01
       549   4.00000000000e-01   2.00000000000e-01
       550   5.00000000000e-01   2.00000000000e-01
       551   6.00000000000e-01   2.00000000000e-01
       552   7.00000000000e-01   2.00000000000e-01
       553   8.00000000000e-01   2.00000000000e-01
       554   9.00000000000e-01   2.00000000000e-01
       555   1.00000000000e+00   2.00000000000e-01
       556   1.10000000000e+00   2.00000000000e-01
       557   1.20000000000e+00   2.00000000000e-01
       558   1.30000000000e+00   2.00000000000e-01
       559   1.40000000000e+00   2.00000000000e-01
       560   1.50000000000e+00   2.00000000000e-01
       561   1.60000000000e+00   2.00000000000e-01
       562  -1.60000000000e+00   3.00000000000e-01
       563  -1.50000000000e+00   3.00000000000e-01
       564  -1.40000000000e+00   3.00000000000e-01
       565  -1.30000000000e+00   3.00000000000e-01
       566  -1.20000000000e+00   3.00000000000e-01
       567  -1.10000000000e+00   3.00000000000e-01
       568  -1.00000000000e+00   3.00000000000e-01
       569  -9.00000000000e-01   3.00000000000e-01
       570  -8.00000000000e-01   3.00000000000e-01
       571  -7.00000000000e-01   3.00000000000e-01
       572  -6.00000000000e-01   3.00000000000e-01
       573  -5.00000000000e-01   3.00000000000e-01
       574  -4.00000000000e-01   3.00000000000e-01
       575  -3.00000000000e-01   3.00000000000e-01
       576  -2.00000000000e-01   3.00000000000e-01
       577  -1.00000000000e-01   3.00000000000e-01
       578   0.00000000000e+00   3.00000000000e-01
       579   1.00000000000e-01   3.00000000000e-01
       580   2.00000000000e-01   3.00000000000e-01
       581   3.00000000000e-01   3.00000000000e-01
       582   4.00000000000e-01   3.00000000000e-01
       583   5.00000000000e-01   3.00000000000e-01
       584   6.00000000000e-01   3.00000000000e-01
       585   7.00000000000e-01   3.00000000000e-01
       586   8.00000000000e-01   3.00000000000e-01
       587   9.00000000000e-01   3.00000000000e-01
       588   1.00000000000e+00   3.00000000000e-01
       589   1.10000000000e+00   3.00000000000e-01
       590   1.20000000000e+00   3.00000000000e-01
       591   1.30000000000e+00   3.00000000000e-01
       592   1.40000000000e+00   3.00000000000e-01
       593   1.50000000000e+00   3.00000000000e-01
       594   1.60000000000e+00   3.00000000000e-01
       595  -1.60000000000e+00   4.00000000000e-01
       596  -1.50000000000e+00   4.00000000000e-01
       597  -1.40000000000e+00   4.00000000000e-01
       598  -1.30000000000e+00   4.00000000000e-01
       599  -1.20000000000e+00   4.00000000000e-01
       600  -1.10000000000e+00   4.00000000000e-01
       601  -1.00000000000e+00   4.00000000000e-01
       602  -9.00000000000e-01   4.00000000000e-01
       603  -8.00000000000e-01   4.00000000000e-01
       604  -7.00000000000e-01   4.00000000000e-01
       605  -6.00000000000e-01   4.00000000000e-01
       606  -5.00000000000e-01   4.00000000000e-01
       607  -4.00000000000e-01   4.00000000000e-01
       608  -3.00000000000e-01   4.00000000000e-01
       609  -2.00000000000e-01   4.00000000000e-01
       610  -1.00000000000e-01   4.00000000000e-01
       611   0.00000000000e+00   4.00000000000e-01
       612   1.00000000000e-01   4.00000000000e-01
       613   2.00000000000e-01   4.00000000000e-01
       614   3.00000000000e-01   4.00000000000e-01
       615   4.00000000000e-01   4.00000000000e-01
       616   5.00000000000e-01   4.00000000000e-01
       617   6.00000000000e-01   4.00000000000e-01
       618   7.00000000000e-01   4.00000000000e-01
       619   8.00000000000e-01   4.00000000000e-01
       620   9.00000000000e-01   4.00000000000e-01
       621   1.00000000000e+00   4.00000000000e-01
       622   1.10000000000e+00   4.00000000000e-01
       623   1.20000000000e+00   4.00000000000e-01
       624   1.30000000000e+00   4.00000000000e-01
       625   1.40000000000e+00   4.00000000000e-01
       626   1.50000000000e+00   4.00000000000e-01
       627   1.60000000000e+00   4.00000000000e-01
       628  -1.60000000000e+00   5.00000000000e-01
       629  -1.50000000000e+00   5.00000000000e-01
       630  -1.40000000000e+00   5.00000000000e-01
       631  -1.30000000000e+00   5.00000000000e-01
       632  -1.20000000000e+00   5.00000000000e-01
       633  -1.10000000000e+00   5.00000000000e-01
       634  -1.00000000000e+00   5.00000000000e-01
       635  -9.00000000000e-01   5.00000000000e-01
       636  -8.00000000000e-01   5.00000000000e-01
       637  -7.00000000000e-01   5.00000000000e-01
       638  -6.00000000000e-01   5.00000000000e-01
       639  -5.00000000000e-01   5.00000000000e-01
       640  -4.00000000000e-01   5.00000000000e-01
       641  -3.00000000000e-01   5.00000000000e-01
       642  -2.00000000000e-01   5.00000000000e-01
       643  -1.00000000000e-01   5.00000000000e-01
       644   0.00000000000e+00   5.00000000000e-01
       645   1.00000000000e-01   5.00000000000e-01
       646   2.00000000000e-01   5.00000000000e-01
       647   3.00000000000e-01   5.00000000000e-01
       648   4.00000000000e-01   5.00000000000e-01
       649   5.00000000000e-01   5.00000000000e-01
       650   6.00000000000e-01   5.00000000000e-01
       651   7.00000000000e-01   5.00000000000e-01
       652   8.00000000000e-01   5.00000000000e-01
       653   9.00000000000e-01   5.00000000000e-01
       654   1.00000000000e+00   5.00000000000e-01
       655   1.10000000000e+00   5.00000000000e-01
       656   1.20000000000e+00   5.00000000000e-01
       657   1.30000000000e+00   5.00000000000e-01
       658   1.40000000000e+00   5.00000000000e-01
       659   1.50000000000e+00   5.00000000000e-01
       660   1.60000000000e+00   5.00000000000e-01
       661  -1.60000000000e+00   6.00000000000e-01
       662  -1.50000000000e+00   6.00000000000e-01
       663  -1.40000000000e+00   6.00000000000e-01
       664  -1.30000000000e+00   6.00000000000e-01
       665  -1.20000000000e+00   6.00000000000e-01
       666  -1.10000000000e+00   6.00000000000e-01
       667  -1.00000000000e+00   6.00000000000e-01
       668  -9.00000000000e-01   6.00000000000e-01
       669  -8.00000000000e-01   6.00000000000e-01
       670  -7.00000000000e-01   6.00000000000e-01
       671  -6.00000000000e-01   6.00000000000e-01
       672  -5.00000000000e-01   6.00000000000e-01
       673  -4.00000000000e-01   6.00000000000e-01
       674  -3.00000000000e-01   6.00000000000e-01
       675  -2.00000000000e-01   6.00000000000e-01
       676  -1.00000000000e-01   6.00000000000e-01
       677   0.00000000000e+00   6.00000000000e-01
       678   1.00000000000e-01   6.00000000000e-01
       679   2.00000000000e-01   6.00000000000e-01
       680   3.00000000000e-01   6.00000000000e-01
       681   4.00000000000e-01   6.00000000000e-01
       682   5.00000000000e-01   6.00000000000e-01
       683   6.00000000000e-01   6.00000000000e-01
       684   7.00000000000e-01   6.00000000000e-01
       685   8.00000000000e-01   6.00000000000e-01
       686   9.00000000000e-01   6.00000000000e-01
       687   1.00000000000e+00   6.00000000000e-01
       688   1.10000000000e+00   6.00000000000e-01
       689   1.20000000000e+00   6.00000000000e-01
       690   1.30000000000e+00   6.00000000000e-01
       691   1.40000000000e+00   6.00000000000e-01
       692   1.50000000000e+00   6.00000000000e-01
       693   1.60000000000e+00   6.00000000000e-01
       694  -1.60000000000e+00   7.00000000000e-01
       695  -1.50000000000e+00   7.00000000000e-01
       696  -1.40000000000e+00   7.00000000000e-01
       697  -1.30000000000e+00   7.00000000000e-01
       698  -1.20000000000e+00   7.00000000000e-01
       699  -1.10000000000e+00   7.00000000000e-01
       700  -1.00000000000e+00   7.00000000000e-01
       701  -9.00000000000e-01   7.00000000000e-01
       702  -8.00000000000e-01   7.00000000000e-01
       703  -7.00000000000e-01   7.00000000000e-01
       704  -6.00000000000e-01   7.00000000000e-01
       705  -5.00000000000e-01   7.00000000000e-01
       706  -4.00000000000e-01   7.00000000000e-01
       707  -3.00000000000e-01   7.00000000000e-01
       708  -2.00000000000e-01   7.00000000000e-01
       709  -1.00000000000e-01   7.00000000000e-01
       710   0.00000000000e+00   7.00000000000e-01
       711   1.00000000000e-01   7.00000000000e-01
       712   2.00000000000e-01   7.00000000000e-01
       713   3.00000000000e-01   7.00000000000e-01
       714   4.00000000000e-01   7.00000000000e-01
       715   5.00000000000e-01   7.00000000000e-01
       716   6.00000000000e-01   7.00000000000e-01
       717   7.00000000000e-01   7.00000000000e-01
       718   8.00000000000e-01   7.00000000000e-01
       719   9.00000000000e-01   7.00000000000e-01
       720   1.00000000000e+00   7.00000000000e-01
       721   1.10000000000e+00   7.00000000000e-01
       722   1.20000000000e+00   7.00000000000e-01
       723   1.30000000000e+00   7.00000000000e-01
       724   1.40000000000e+00   7.00000000000e-01
       725   1.50000000000e+00   7.00000000000e-01
       726   1.60000000000e+00   7.00000000000e-01
       727  -1.60000000000e+00   8.00000000000e-01
       728  -1.50000000000e+00   8.00000000000e-01
       729  -1.40000000000e+00   8.00000000000e-01
       730  -1.30000000000e+00   8.00000000000e-01
       731  -1.20000000000e+00   8.00000000000e-01
       732  -1.10000000000e+00   8.00000000000e-01
       733  -1.00000000000e+00   8.00000000000e-01
       734  -9.00000000000e-01   8.00000000000e-01
       735  -8.00000000000e-01   8.00000000000e-01
       736  -7.00000000000e-01   8.00000000000e-01
       737  -6.00000000000e-01   8.00000000000e-01
       738  -5.00000000000e-01   8.00000000000e-01
       739  -4.00000000000e-01   8.00000000000e-01
       740  -3.00000000000e-01   8.00000000000e-01
       741  -2.00000000000e-01   8.00000000000e-01
       742  -1.00000000000e-01   8.00000000000e-01
       743   0.00000000000e+00   8.00000000000e-01
       744   1.00000000000e-01   8.00000000000e-01
       745   2.00000000000e-01   8.00000000000e-01
       746   3.00000000000e-01   8.00000000000e-01
       747   4.00000000000e-01   8.00000000000e-01
       748   5.00000000000e-01   8.00000000000e-01
       749   6.00000000000e-01   8.00000000000e-01
       750   7.00000000000e-01   8.00000000000e-01
       751   8.00000000000e-01   8.00000000000e-01
       752   9.00000000000e-01   8.00000000000e-01
       753   1.00000000000e+00   8.00000000000e-01
       754   1.10000000000e+00   8.00000000000e-01
       755   1.20000000000e+00   8.00000000000e-01
       756   1.30000000000e+00   8.00000000000e-01
       757   1.40000000000e+00   8.00000000000e-01
       758   1.50000000000e+00   8.00000000000e-01
       759   1.60000000000e+00   8.00000000000e-01
       760  -1.60000000000e+00   9.00000000000e-01
       761  -1.50000000000e+00   9.00000000000e-01
       762  -1.40000000000e+00   9.00000000000e-01
       763  -1.30000000000e+00   9.00000000000e-01
       764  -1.20000000000e+00   9.00000000000e-01
       765  -1.10000000000e+00   9.00000000000e-01
       766  -1.00000000000e+00   9.00000000000e-01
       767  -9.00000000000e-01   9.00000000000e-01
       768  -8.00000000000e-01   9.00000000000e-01
       769  -7.00000000000e-01   9.00000000000e-01
       770  -6.00000000000e-01   9.00000000000e-01
       771  -5.00000000000e-01   9.00000000000e-01
       772  -4.00000000000e-01   9.00000000000e-01
       773  -3.00000000000e-01   9.00000000000e-01
       774  -2.00000000000e-01   9.00000000000e-01
       775  -1.00000000000e-01   9.00000000000e-01
       776   0.00000000000e+00   9.00000000000e-01
       777   1.00000000000e-01   9.00000000000e-01
       778   2.00000000000e-01   9.00000000000e-01
       779   3.00000000000e-01   9.00000000000e-01
       780   4.00000000000e-01   9.00000000000e-01
       781   5.00000000000e-01   9.00000000000e-01
       782   6.00000000000e-01   9.00000000000e-01
       783   7.00000000000e-01   9.00000000000e-01
       784   8.00000000000e-01   9.00000000000e-01
       785   9.00000000000e-01   9.00000000000e-01
       786   1.00000000000e+00   9.00000000000e-01
       787   1.10000000000e+00   9.00000000000e-01
       788   1.20000000000e+00   9.00000000000e-01
       789   1.30000000000e+00   9.00000000000e-01
       790   1.40000000000e+00   9.00000000000e-01
       791   1.50000000000e+00   9.00000000000e-01
       792   1.60000000000e+00   9.00000000000e-01
       793  -1.60000000000e+00   1.00000000000e+00
       794  -1.50000000000e+00   1.00000000000e+00
       795  -1.40000000000e+00   1.00000000000e+00
       796  -1.30000000000e+00   1.00000000000e+00
       797  -1.20000000000e+00   1.00000000000e+00
       798  -1.10000000000e+00   1.00000000000e+00
       799  -1.00000000000e+00   1.00000000000e+00
       800  -9.00000000000e-01   1.00000000000e+00
       801  -8.00000000000e-01   1.00000000000e+00
       802  -7.00000000000e-01   1.00000000000e+00
       803  -6.00000000000e-01   1.00000000000e+00
       804  -5.00000000000e-01   1.00000000000e+00
       805  -4.00000000000e-01   1.00000000000e+00
       806  -3.00000000000e-01   1.00000000000e+00
       807  -2.00000000000e-01   1.00000000000e+00
       808  -1.00000000000e-01   1.00000000000e+00
       809   0.00000000000e+00   1.00000000000e+00
       810   1.00000000000e-01   1.00000000000e+00
       811   2.00000000000e-01   1.00000000000e+00
       812   3.00000000000e-01   1.00000000000e+00
       813   4.00000000000e-01   1.00000000000e+00
       814   5.00000000000e-01   1.00000000000e+00
       815   6.00000000000e-01   1.00000000000e+00
       816   7.00000000000e-01   1.00000000000e+00
       817   8.00000000000e-01   1.00000000000e+00
       818   9.00000000000e-01   1.00000000000e+00
       819   1.00000000000e+00   1.00000000000e+00
       820   1.10000000000e+00   1.00000000000e+00
       821   1.20000000000e+00   1.00000000000e+00
       822   1.30000000000e+00   1.00000000000e+00
       823   1.40000000000e+00   1.00000000000e+00
       824   1.50000000000e+00   1.00000000000e+00
       825   1.60000000000e+00   1.00000000000e+00
       826  -1.60000000000e+00   1.10000000000e+00
       827  -1.50000000000e+00   1.10000000000e+00
       828  -1.40000000000e+00   1.10000000000e+00
       829  -1.30000000000e+00   1.10000000000e+00
       830  -1.20000000000e+00   1.10000000000e+00
       831  -1.10000000000e+00   1.10000000000e+00
       832  -1.00000000000e+00   1.10000000000e+00
       833  -9.00000000000e-01   1.10000000000e+00
       834  -8.00000000000e-01   1.10000000000e+00
       835  -7.00000000000e-01   1.10000000000e+00
       836  -6.00000000000e-01   1.10000000000e+00
       837  -5.00000000000e-01   1.10000000000e+00
       838  -4.00000000000e-01   1.10000000000e+00
       839  -3.00000000000e-01   1.10000000000e+00
       840  -2.00000000000e-01   1.10000000000e+00
       841  -1.00000000000e-01   1.10000000000e+00
       842   0.00000000000e+00   1.10000000000e+00
       843   1.00000000000e-01   1.10000000000e+00
       844   2.00000000000e-01   1.10000000000e+00
       845   3.00000000000e-01   1.10000000000e+00
       846   4.00000000000e-01   1.10000000000e+00
       847   5.00000000000e-01   1.10000000000e+00
       848   6.00000000000e-01   1.10000000000e+00
       849   7.00000000000e-01   1.10000000000e+00
       850   8.00000000000e-01   1.10000000000e+00
       851   9.00000000000e-01   1.10000000000e+00
       852   1.00000000000e+00   1.10000000000e+00
       853   1.10000000000e+00   1.10000000000e+00
       854   1.20000000000e+00   1.10000000000e+00
       855   1.30000000000e+00   1.10000000000e+00
       856   1.40000000000e+00   1.10000000000e+00
       857   1.50000000000e+00   1.10000000000e+00
       858   1.60000000000e+00   1.10000000000e+00
       859  -1.60000000000e+00   1.20000000000e+00
       860  -1.50000000000e+00   1.20000000000e+00
       861  -1.40000000000e+00   1.20000000000e+00
       862  -1.30000000000e+00   1.20000000000e+00
       863  -1.20000000000e+00   1.20000000000e+00
       864  -1.10000000000e+00   1.20000000000e+00
       865  -1.00000000000e+00   1.20000000000e+00
       866  -9.00000000000e-01   1.20000000000e+00
       867  -8.00000000000e-01   1.20000000000e+00
       868  -7.00000000000e-01   1.20000000000e+00
       869  -6.00000000000e-01   1.20000000000e+00
       870  -5.00000000000e-01   1.20000000000e+00
       871  -4.00000000000e-01   1.20000000000e+00
       872  -3.00000000000e-01   1.20000000000e+00
       873  -2.00000000000e-01   1.20000000000e+00
       874  -1.00000000000e-01   1.20000000000e+00
       875   0.00000000000e+00   1.20000000000e+00
       876   1.00000000000e-01   1.20000000000e+00
       877   2.00000000000e-01   1.20000000000e+00
       878   3.00000000000e-01   1.20000000000e+00
       879   4.00000000000e-01   1.20000000000e+00
       880   5.00000000000e-01   1.20000000000e+00
       881   6.00000000000e-01   1.20000000000e+00
       882   7.00000000000e-01   1.20000000000e+00
       883   8.00000000000e-01   1.20000000000e+00
       884   9.00000000000e-01   1.20000000000e+00
       885   1.00000000000e+00   1.20000000000e+00
       886   1.10000000000e+00   1.20000000000e+00
       887   1.20000000000e+00   1.20000000000e+00
       888   1.30000000000e+00   1.20000000000e+00
       889   1.40000000000e+00   1.20000000000e+00
       890   1.50000000000e+00   1.20000000000e+00
       891   1.60000000000e+00   1.20000000000e+00
       892  -1.60000000000e+00   1.30000000000e+00
       893  -1.50000000000e+00   1.30000000000e+00
       894  -1.40000000000e+00   1.30000000000e+00
       895  -1.30000000000e+00   1.30000000000e+00
       896  -1.20000000000e+00   1.30000000000e+00
       897  -1.10000000000e+00   1.30000000000e+00
       898  -1.00000000000e+00   1.30000000000e+00
       899  -9.00000000000e-01   1.30000000000e+00
       900  -8.00000000000e-01   1.30000000000e+00
       901  -7.00000000000e-01   1.30000000000e+00
       902  -6.00000000000e-01   1.30000000000e+00
       903  -5.00000000000e-01   1.30000000000e+00
       904  -4.00000000000e-01   1.30000000000e+00
       905  -3.00000000000e-01   1.30000000000e+00
       906  -2.00000000000e-01   1.30000000000e+00
       907  -1.00000000000e-01   1.30000000000e+00
       908   0.00000000000e+00   1.30000000000e+00
       909   1.00000000000e-01   1.30000000000e+00
       910   2.00000000000e-01   1.30000000000e+00
       911   3.00000000000e-01   1.30000000000e+00
       912   4.00000000000e-01   1.30000000000e+00
       913   5.00000000000e-01   1.30000000000e+00
       914   6.00000000000e-01   1.30000000000e+00
       915   7.00000000000e-01   1.30000000000e+00
       916   8.00000000000e-01   1.30000000000e+00
       917   9.00000000000e-01   1.30000000000e+00
       918   1.00000000000e+00   1.30000000000e+00
       919   1.10000000000e+00   1.30000000000e+00
       920   1.20000000000e+00   1.30000000000e+00
       921   1.30000000000e+00   1.30000000000e+00
       922   1.40000000000e+00   1.30000000000e+00
       923   1.50000000000e+00   1.30000000000e+00
       924   1.60000000000e+00   1.30000000000e+00
       925  -1.60000000000e+00   1.40000000000e+00
       926  -1.50000000000e+00   1.40000000000e+00
       927  -1.40000000000e+00   1.40000000000e+00
       928  -1.30000000000e+00   1.40000000000e+00
       929  -1.20000000000e+00   1.40000000000e+00
       930  -1.10000000000e+00   1.40000000000e+00
       931  -1.00000000000e+00   1.40000000000e+00
       932  -9.00000000000e-01   1.40000000000e+00
       933  -8.00000000000e-01   1.40000000000e+00
       934  -7.00000000000e-01   1.40000000000e+00
       935  -6.00000000000e-01   1.40000000000e+00
       936  -5.00000000000e-01   1.40000000000e+00
       937  -4.00000000000e-01   1.40000000000e+00
       938  -3.00000000000e-01   1.40000000000e+00
       939  -2.00000000000e-01   1.40000000000e+00
       940  -1.00000000000e-01   1.40000000000e+00
       941   0.00000000000e+00   1.40000000000e+00
       942   1.00000000000e-01   1.40000000000e+00
       943   2.00000000000e-01   1.40000000000e+00
       944   3.00000000000e-01   1.40000000000e+00
       945   4.00000000000e-01   1.40000000000e+00
       946   5.00000000000e-01   1.40000000000e+00
       947   6.00000000000e-01   1.40000000000e+00
       948   7.00000000000e-01   1.40000000000e+00
       949   8.00000000000e-01   1.40000000000e+00
       950   9.00000000000e-01   1.40000000000e+00
       951   1.00000000000e+00   1.40000000000e+00
       952   1.10000000000e+00   1.40000000000e+00
       953   1.20000000000e+00   1.40000000000e+00
       954   1.30000000000e+00   1.40000000000e+00
       955   1.40000000000e+00   1.40000000000e+00
       956   1.50000000000e+00   1.40000000000e+00
       957   1.60000000000e+00   1.40000000000e+00
ENDOFSECTION
      ELEMENTS/CELLS 2.3.16
       1  2  9      341     342     343     376     409     408     407
                    374     375
       2  2  9      343     344     345     378     411     410     409
                    376     377
       3  2  9      345     346     347     380     413     412     411
                    378     379
       4  2  9      347     348     349     382     415     414     413
                    380     381
       5  2  9      349     350     351     384     417     416     415
                    382     383
       6  2  9      351     352     353     386     419     418     417
                    384     385
       7  2  9      407     408     409     442     475     474     473
                    440     441
       8  2  9      409     410     411     444     477     476     475
                    442     443
       9  2  9      411     412     413     446     479     478     477
                    444     445
      10  2  9      413     414     415     448     481     480     479
                    446     447
      11  2  9      415     416     417     450     483     482     481
                    448     449
      12  2  9      417     418     419     452     485     484     483
                    450     451
      13  2  9      473     474     475     508     541     540     539
                    506     507
      14  2  9      475     476     477     510     543     542     541
                    508     509
      15  2  9      477     478     479     512     545     544     543
                    510     511
      16  2  9      479     480     481     514     547     546     545
                    512     513
      17  2  9      481     482     483     516     549     548     547
                    514     515
      18  2  9      483     484     485     518     551     550     549
                    516     517
      19  2  9      539     540     541     574     607     606     605
                    572     573
      20  2  9      541     542     543     576     609     608     607
                    574     575
      21  2  9      543     544     545     578     611     610     609
                    576     577
      22  2  9      545     546     547     580     613     612     611
                    578     579
      23  2  9      547     548     549     582     615     614     613
                    580     581
      24  2  9      549     550     551     584     617     616     615
                    582     583
      25  2  9        1       2       3      36      69      68      67
                     34      35
      26  2  9        3       4       5      38      71      70      69
                     36      37
      27  2  9        5       6       7      40      73      72      71
                     38      39
      28  2  9        7       8       9      42      75      74      73
                     40      41
      29  2  9        9      10      11      44      77      76      75
                     42      43
      30  2  9       11      12      13      46      79      78      77
                     44      45
      31  2  9       13      14      15      48      81      80      79
                     46      47
      32  2  9       15      16      17      50      83      82      81
                     48      49
      33  2  9       17      18      19      52      85      84      83
                     50      51
      34  2  9       19      20      21      54      87      86      85
                     52      53
      35  2  9       21      22      23      56      89      88      87
                     54      55
      36  2  9       23      24      25      58      91      90      89
                     56      57
      37  2  9       25      26      27      60      93      92      91
                     58      59
      38  2  9       27      28      29      62      95      94      93
                     60      61
      39  2  9       29      30      31      64      97      96      95
                     62      63
      40  2  9       31      32      33      66      99      98      97
                     64      65
      41  2  9       67      68      69     102     135     134     133
                    100     101
      42  2  9       69      70      71     104     137     136     135
                    102     103
      43  2  9       71      72      73     106     139     138     137
                    104     105
      44  2  9       73      74      75     108     141     140     139
                    106     107
      45  2  9       75      76      77     110     143     142     141
                    108     109
      46  2  9       77      78      79     112     145     144     143
                    110     111
      47  2  9       79      80      81     114     147     146     145
                    112     113
      48  2  9       81      82      83     116     149     148     147
                    114     115
      49  2  9       83      84      85     118     151     150     149
                    116     117
      50  2  9       85      86      87     120     153     152     151
                    118     119
      51  2  9       87      88      89     122     155     154     153
                    120     121
      52  2  9       89      90      91     124     157     156     155
                    122     123
      53  2  9       91      92      93     126     159     158     157
                    124     125
      54  2  9       93      94      95     128     161     160     159
                    126     127
      55  2  9       95      96      97     130     163     162     161
                    128     129
      56  2  9       97      98      99     132     165     164     163
                    130     131
      57  2  9      133     134     135     168     201     200     199
                    166     167
      58  2  9      135     136     137     170     203     202     201
                    168     169
      59  2  9      137     138     139     172     205     204     203
                    170     171
      60  2  9      139     140     141     174     207     206     205
                    172     173
      61  2  9      141     142     143     176     209     208     207
                    174     175
      62  2  9      143     144     145     178     211     210     209
                    176     177
      63  2  9      145     146     147     180     213     212     211
                    178     179
      64  2  9      147     148     149     182     215     214     213
                    180     181
      65  2  9      149     150     151     184     217     216     215
                    182     183
      66  2  9      151     152     153     186     219     218     217
                    184     185
      67  2  9      153     154     155     188     221     220     219
                    186     187
      68  2  9      155     156     157     190     223     222     221
                    188     189
      69  2  9      157     158     159     192     225     224     223
                    190     191
      70  2  9      159     160     161     194     227     226     225
                    192     193
      71  2  9      161     162     163     196     229     228     227
                    194     195
      72  2  9      163     164     165     198     231     230     229
                    196     197
      73  2  9      199     200     201     234     267     266     265
                    232     233
      74  2  9      201     202     203     236     269     268     267
                    234     235
      75  2  9      203     204     205     238     271     270     269
                    236     237
      76  2  9      205     206     207     240     273     272     271
                    238     239
      77  2  9      207     208     209     242     275     274     273
                    240     241
      78  2  9      209     210     211     244     277     276     275
                    242     243
      79  2  9      211     212     213     246     279     278     277
                    244     245
      80  2  9      213     214     215     248     281     280     279
                    246     247
      81  2  9      215     216     217     250     283     282     281
                    248     249
      82  2  9      217     218     219     252     285     284     283
                    250     251
      83  2  9      219     220     221     254     287     286     285
                    252     253
      84  2  9      221     222     223     256     289     288     287
                    254     255
      85  2  9      223     224     225     258     291     290     289
                    256     257
      86  2  9      225     226     227     260     293     292     291
                    258     259
      87  2  9      227     228     229     262     295     294     293
                    260     261
      88  2  9      229     230     231     264     297     296     295
                    262     263
      89  2  9      265     266     267     300     333     332     331
                    298     299
      90  2  9      267     268     269     302     335     334     333
                    300     301
      91  2  9      269     270     271     304     337     336     335
                    302     303
      92  2  9      271     272     273     306     339     338     337
                    304     305
      93  2  9      273     274     275     308     341     340     339
                    306     307
      94  2  9      275     276     277     310     343     342     341
                    308     309
      95  2  9      277     278     279     312     345     344     343
                    310     311
      96  2  9      279     280     281     314     347     346     345
                    312     313
      97  2  9      281     282     283     316     349     348     347
                    314     315
      98  2  9      283     284     285     318     351     350     349
                    316     317
      99  2  9      285     286     287     320     353     352     351
                    318     319
     100  2  9      287     288     289     322     355     354     353
                    320     321
     101  2  9      289     290     291     324     357     356     355
                    322     323
     102  2  9      291     292     293     326     359     358     357
                    324     325
     103  2  9      293     294     295     328     361     360     359
                    326     327
     104  2  9      295     296     297     330     363     362     361
                    328     329
     105  2  9      331     332     333     366     399     398     397
                    364     365
     106  2  9      333     334     335     368     401     400     399
                    366     367
     107  2  9      335     336     337     370     403     402     401
                    368     369
     108  2  9      337     338     339     372     405     404     403
                    370     371
     109  2  9      339     340     341     374     407     406     405
                    372     373
     110  2  9      353     354     355     388     421     420     419
                    386     387
     111  2  9      355     356     357     390     423     422     421
                    388     389
     112  2  9      357     358     359     392     425     424     423
                    390     391
     113  2  9      359     360     361     394     427     426     425
                    392     393
     114  2  9      361     362     363     396     429     428     427
                    394     395
     115  2  9      397     398     399     432     465     464     463
                    430     431
     116  2  9      399     400     401     434     467     466     465
                    432     433
     117  2  9      401     402     403     436     469     468     467
                    434     435
     118  2  9      403     404     405     438     471     470     469
                    436     437
     119  2  9      405     406     407     440     473     472     471
                    438     439
     120  2  9      419     420     421     454     487     486     485
                    452     453
     121  2  9      421     422     423     456     489     488     487
                    454     455
     122  2  9      423     424     425     458     491     490     489
                    456     457
     123  2  9      425     426     427     460     493     492     491
                    458     459
     124  2  9      427     428     429     462     495     494     493
                    460     461
     125  2  9      463     464     465     498     531     530     529
                    496     497
     126  2  9      465     466     467     500     533     532     531
                    498     499
     127  2  9      467     468     469     502     535     534     533
                    500     501
     128  2  9      469     470     471     504     537     536     535
                    502     503
     129  2  9      471     472     473     506     539     538     537
                    504     505
     130  2  9      485     486     487     520     553     552     551
                    518     519
     131  2  9      487     488     489     522     555     554     553
                    520     521
     132  2  9      489     490     491     524     557     556     555
                    522     523
     133  2  9      491     492     493     526     559     558     557
                    524     525
     134  2  9      493     494     495     528     561     560     559
                    526     527
     135  2  9      529     530     531     564     597     596     595
                    562     563
     136  2  9      531     532     533     566     599     598     597
                    564     565
     137  2  9      533     534     535     568     601     600     599
                    566     567
     138  2  9      535     536     537     570     603     602     601
                    568     569
     139  2  9      537     538     539     572     605     604     603
                    570     571
     140  2  9      551     552     553     586     619     618     617
                    584     585
     141  2  9      553     554     555     588     621     620     619
                    586     587
     142  2  9      555     556     557     590     623     622     621
                    588     589
     143  2  9      557     558     559     592     625     624     623
                    590     591
     144  2  9      559     560     561     594     627     626     625
                    592     593
     145  2  9      595     596     597     630     663     662     661
                    628     629
     146  2  9      597     598     599     632     665     664     663
                    630     631
     147  2  9      599     600     601     634     667     666     665
                    632     633
     148  2  9      601     602     603     636     669     668     667
                    634     635
     149  2  9      603     604     605     638     671     670     669
                    636     637
     150  2  9      605     606     607     640     673     672     671
                    638     639
     151  2  9      607     608     609     642     675     674     673
                    640     641
     152  2  9      609     610     611     644     677     676     675
                    642     643
     153  2  9      611     612     613     646     679     678     677
                    644     645
     154  2  9      613     614     615     648     681     680     679
                    646     647
     155  2  9      615     616     617     650     683     682     681
                    648     649
     156  2  9      617     618     619     652     685     684     683
                    650     651
     157  2  9      619     620     621     654     687     686     685
                    652     653
     158  2  9      621     622     623     656     689     688     687
                    654     655
     159  2  9      623     624     625     658     691     690     689
                    656     657
     160  2  9      625     626     627     660     693     692     691
                    658     659
     161  2  9      661     662     663     696     729     728     727
                    694     695
     162  2  9      663     664     665     698     731     730     729
                    696     697
     163  2  9      665     666     667     700     733     732     731
                    698     699
     164  2  9      667     668     669     702     735     734     733
                    700     701
     165  2  9      669     670     671     704     737     736     735
                    702     703
     166  2  9      671     672     673     706     739     738     737
                    704     705
     167  2  9      673     674     675     708     741     740     739
                    706     707
     168  2  9      675     676     677     710     743     742     741
                    708     709
     169  2  9      677     678     679     712     745     744     743
                    710     711
     170  2  9      679     680     681     714     747     746     745
                    712     713
     171  2  9      681     682     683     716     749     748     747
                    714     715
     172  2  9      683     684     685     718     751     750     749
                    716     717
     173  2  9      685     686     687     720     753     752     751
                    718     719
     174  2  9      687     688     689     722     755     754     753
                    720     721
     175  2  9      689     690     691     724     757     756     755
                    722     723
     176  2  9      691     692     693     726     759     758     757
                    724     725
     177  2  9      727     728     729     762     795     794     793
                    760     761
     178  2  9      729     730     731     764     797     796     795
                    762     763
     179  2  9      731     732     733     766     799     798     797
                    764     765
     180  2  9      733     734     735     768     801     800     799
                    766     767
     181  2  9      735     736     737     770     803     802     801
                    768     769
     182  2  9      737     738     739     772     805     804     803
                    770     771
     183  2  9      739     740     741     774     807     806     805
                    772     773
     184  2  9      741     742     743     776     809     808     807
                    774     775
     185  2  9      743     744     745     778     811     810     809
                    776     777
     186  2  9      745     746     747     780     813     812     811
                    778     779
     187  2  9      747     748     749     782     815     814     813
                    780     781
     188  2  9      749     750     751     784     817     816     815
                    782     783
     189  2  9      751     752     753     786     819     818     817
                    784     785
     190  2  9      753     754     755     788     821     820     819
                    786     787
     191  2  9      755     756     757     790     823     822     821
                    788     789
     192  2  9      757     758     759     792     825     824     823
                    790     791
     193  2  9      793     794     795     828     861     860     859
                    826     827
     194  2  9      795     796     797     830     863     862     861
                    828     829
     195  2  9      797     798     799     832     865     864     863
                    830     831
     196  2  9      799     800     801     834     867     866     865
                    832     833
     197  2  9      801     802     803     836     869     868     867
                    834     835
     198  2  9      803     804     805     838     871     870     869
                    836     837
     199  2  9      805     806     807     840     873     872     871
                    838     839
     200  2  9      807     808     809     842     875     874     873
                    840     841
     201  2  9      809     810     811     844     877     876     875
                    842     843
     202  2  9      811     812     813     846     879     878     877
                    844     845
     203  2  9      813     814     815     848     881     880     879
                    846     847
     204  2  9      815     816     817     850     883     882     881
                    848     849
     205  2  9      817     818     819     852     885     884     883
                    850     851
     206  2  9      819     820     821     854     887     886     885
                    852     853
     207  2  9      821     822     823     856     889     888     887
                    854     855
     208  2  9      823     824     825     858     891     890     889
                    856     857
     209  2  9      859     860     861     894     927     926     925
                    892     893
     210  2  9      861     862     863     896     929     928     927
                    894     895
     211  2  9      863     864     865     898     931     930     929
                    896     897
     212  2  9      865     866     867     900     933     932     931
                    898     899
     213  2  9      867     868     869     902     935     934     933
                    900     901
     214  2  9      869     870     871     904     937     936     935
                    902     903
     215  2  9      871     872     873     906     939     938     937
                    904     905
     216  2  9      873     874     875     908     941     940     939
                    906     907
     217  2  9      875     876     877     910     943     942     941
                    908     909
     218  2  9      877     878     879     912     945     944     943
                    910     911
     219  2  9      879     880     881     914     947     946     945
                    912     913
     220  2  9      881     882     883     916     949     948     947
                    914     915
     221  2  9      883     884     885     918     951     950     949
                    916     917
     222  2  9      885     886     887     920     953     952     951
                    918     919
     223  2  9      887     888     889     922     955     954     953
                    920     921
     224  2  9      889     890     891     924     957     956     955
                    922     923
ENDOFSECTION
       ELEMENT GROUP 2.3.16
GROUP:          1 ELEMENTS:        200 MATERIAL:          4 NFLAGS:          1
                               5
       0
      25      26      27      28      29      30      31      32      33      34
      35      36      37      38      39      40      41      42      43      44
      45      46      47      48      49      50      51      52      53      54
      55      56      57      58      59      60      61      62      63      64
      65      66      67      68      69      70      71      72      73      74
      75      76      77      78      79      80      81      82      83      84
      85      86      87      88      89      90      91      92      93      94
      95      96      97      98      99     100     101     102     103     104
     105     106     107     108     109     110     111     112     113     114
     115     116     117     118     119     120     121     122     123     124
     125     126     127     128     129     130     131     132     133     134
     135     136     137     138     139     140     141     142     143     144
     145     146     147     148     149     150     151     152     153     154
     155     156     157     158     159     160     161     162     163     164
     165     166     167     168     169     170     171     172     173     174
     175     176     177     178     179     180     181     182     183     184
     185     186     187     188     189     190     191     192     193     194
     195     196     197     198     199     200     201     202     203     204
     205     206     207     208     209     210     211     212     213     214
     215     216     217     218     219     220     221     222     223     224
ENDOFSECTION
       ELEMENT GROUP 2.3.16
GROUP:          2 ELEMENTS:         24 MATERIAL:          2 NFLAGS:          1
                               7
       0
       1       2       3       4       5       6       7       8       9      10
      11      12      13      14      15      16      17      18      19      20
      21      22      23      24
ENDOFSECTION
 BOUNDARY CONDITIONS 2.3.16
                               1       1      60       0       6
        25    2    1
        25    2    4
        26    2    1
        27    2    1
        28    2    1
        29    2    1
        30    2    1
        31    2    1
        32    2    1
        33    2    1
        34    2    1
        35    2    1
        36    2    1
        37    2    1
        38    2    1
        39    2    1
        40    2    1
        40    2    2
        41    2    4
        56    2    2
        57    2    4
        72    2    2
        73    2    4
        88    2    2
        89    2    4
       104    2    2
       105    2    4
       114    2    2
       115    2    4
       124    2    2
       125    2    4
       134    2    2
       135    2    4
       144    2    2
       145    2    4
       160    2    2
       161    2    4
       176    2    2
       177    2    4
       192    2    2
       193    2    4
       208    2    2
       209    2    3
       209    2    4
       210    2    3
       211    2    3
       212    2    3
       213    2    3
       214    2    3
       215    2    3
       216    2    3
       217    2    3
       218    2    3
       219    2    3
       220    2    3
       221    2    3
       222    2    3
       223    2    3
       224    2    2
       224    2    3
ENDOFSECTION
