        CONTROL INFO 2.3.16
** GAMBIT NEUTRAL FILE
martaTest4_collar0p6
PROGRAM:                Gambit     VERSION:  2.3.16
 8 Mar 2019    19:25:39 
     NUMNP     NELEM     NGRPS    NBSETS     NDFCD     NDFVL
       525       120         2         1         2         2
ENDOFSECTION
   NODAL COORDINATES 2.3.16
         1  -1.20000000000e+00  -1.00000000000e+00
         2  -1.10000000000e+00  -1.00000000000e+00
         3  -1.00000000000e+00  -1.00000000000e+00
         4  -9.00000000000e-01  -1.00000000000e+00
         5  -8.00000000000e-01  -1.00000000000e+00
         6  -7.00000000000e-01  -1.00000000000e+00
         7  -6.00000000000e-01  -1.00000000000e+00
         8  -5.00000000000e-01  -1.00000000000e+00
         9  -4.00000000000e-01  -1.00000000000e+00
        10  -3.00000000000e-01  -1.00000000000e+00
        11  -2.00000000000e-01  -1.00000000000e+00
        12  -1.00000000000e-01  -1.00000000000e+00
        13   0.00000000000e+00  -1.00000000000e+00
        14   1.00000000000e-01  -1.00000000000e+00
        15   2.00000000000e-01  -1.00000000000e+00
        16   3.00000000000e-01  -1.00000000000e+00
        17   4.00000000000e-01  -1.00000000000e+00
        18   5.00000000000e-01  -1.00000000000e+00
        19   6.00000000000e-01  -1.00000000000e+00
        20   7.00000000000e-01  -1.00000000000e+00
        21   8.00000000000e-01  -1.00000000000e+00
        22   9.00000000000e-01  -1.00000000000e+00
        23   1.00000000000e+00  -1.00000000000e+00
        24   1.10000000000e+00  -1.00000000000e+00
        25   1.20000000000e+00  -1.00000000000e+00
        26  -1.20000000000e+00  -9.00000000000e-01
        27  -1.10000000000e+00  -9.00000000000e-01
        28  -1.00000000000e+00  -9.00000000000e-01
        29  -9.00000000000e-01  -9.00000000000e-01
        30  -8.00000000000e-01  -9.00000000000e-01
        31  -7.00000000000e-01  -9.00000000000e-01
        32  -6.00000000000e-01  -9.00000000000e-01
        33  -5.00000000000e-01  -9.00000000000e-01
        34  -4.00000000000e-01  -9.00000000000e-01
        35  -3.00000000000e-01  -9.00000000000e-01
        36  -2.00000000000e-01  -9.00000000000e-01
        37  -1.00000000000e-01  -9.00000000000e-01
        38   0.00000000000e+00  -9.00000000000e-01
        39   1.00000000000e-01  -9.00000000000e-01
        40   2.00000000000e-01  -9.00000000000e-01
        41   3.00000000000e-01  -9.00000000000e-01
        42   4.00000000000e-01  -9.00000000000e-01
        43   5.00000000000e-01  -9.00000000000e-01
        44   6.00000000000e-01  -9.00000000000e-01
        45   7.00000000000e-01  -9.00000000000e-01
        46   8.00000000000e-01  -9.00000000000e-01
        47   9.00000000000e-01  -9.00000000000e-01
        48   1.00000000000e+00  -9.00000000000e-01
        49   1.10000000000e+00  -9.00000000000e-01
        50   1.20000000000e+00  -9.00000000000e-01
        51  -1.20000000000e+00  -8.00000000000e-01
        52  -1.10000000000e+00  -8.00000000000e-01
        53  -1.00000000000e+00  -8.00000000000e-01
        54  -9.00000000000e-01  -8.00000000000e-01
        55  -8.00000000000e-01  -8.00000000000e-01
        56  -7.00000000000e-01  -8.00000000000e-01
        57  -6.00000000000e-01  -8.00000000000e-01
        58  -5.00000000000e-01  -8.00000000000e-01
        59  -4.00000000000e-01  -8.00000000000e-01
        60  -3.00000000000e-01  -8.00000000000e-01
        61  -2.00000000000e-01  -8.00000000000e-01
        62  -1.00000000000e-01  -8.00000000000e-01
        63   0.00000000000e+00  -8.00000000000e-01
        64   1.00000000000e-01  -8.00000000000e-01
        65   2.00000000000e-01  -8.00000000000e-01
        66   3.00000000000e-01  -8.00000000000e-01
        67   4.00000000000e-01  -8.00000000000e-01
        68   5.00000000000e-01  -8.00000000000e-01
        69   6.00000000000e-01  -8.00000000000e-01
        70   7.00000000000e-01  -8.00000000000e-01
        71   8.00000000000e-01  -8.00000000000e-01
        72   9.00000000000e-01  -8.00000000000e-01
        73   1.00000000000e+00  -8.00000000000e-01
        74   1.10000000000e+00  -8.00000000000e-01
        75   1.20000000000e+00  -8.00000000000e-01
        76  -1.20000000000e+00  -7.00000000000e-01
        77  -1.10000000000e+00  -7.00000000000e-01
        78  -1.00000000000e+00  -7.00000000000e-01
        79  -9.00000000000e-01  -7.00000000000e-01
        80  -8.00000000000e-01  -7.00000000000e-01
        81  -7.00000000000e-01  -7.00000000000e-01
        82  -6.00000000000e-01  -7.00000000000e-01
        83  -5.00000000000e-01  -7.00000000000e-01
        84  -4.00000000000e-01  -7.00000000000e-01
        85  -3.00000000000e-01  -7.00000000000e-01
        86  -2.00000000000e-01  -7.00000000000e-01
        87  -1.00000000000e-01  -7.00000000000e-01
        88   0.00000000000e+00  -7.00000000000e-01
        89   1.00000000000e-01  -7.00000000000e-01
        90   2.00000000000e-01  -7.00000000000e-01
        91   3.00000000000e-01  -7.00000000000e-01
        92   4.00000000000e-01  -7.00000000000e-01
        93   5.00000000000e-01  -7.00000000000e-01
        94   6.00000000000e-01  -7.00000000000e-01
        95   7.00000000000e-01  -7.00000000000e-01
        96   8.00000000000e-01  -7.00000000000e-01
        97   9.00000000000e-01  -7.00000000000e-01
        98   1.00000000000e+00  -7.00000000000e-01
        99   1.10000000000e+00  -7.00000000000e-01
       100   1.20000000000e+00  -7.00000000000e-01
       101  -1.20000000000e+00  -6.00000000000e-01
       102  -1.10000000000e+00  -6.00000000000e-01
       103  -1.00000000000e+00  -6.00000000000e-01
       104  -9.00000000000e-01  -6.00000000000e-01
       105  -8.00000000000e-01  -6.00000000000e-01
       106  -7.00000000000e-01  -6.00000000000e-01
       107  -6.00000000000e-01  -6.00000000000e-01
       108  -5.00000000000e-01  -6.00000000000e-01
       109  -4.00000000000e-01  -6.00000000000e-01
       110  -3.00000000000e-01  -6.00000000000e-01
       111  -2.00000000000e-01  -6.00000000000e-01
       112  -1.00000000000e-01  -6.00000000000e-01
       113   0.00000000000e+00  -6.00000000000e-01
       114   1.00000000000e-01  -6.00000000000e-01
       115   2.00000000000e-01  -6.00000000000e-01
       116   3.00000000000e-01  -6.00000000000e-01
       117   4.00000000000e-01  -6.00000000000e-01
       118   5.00000000000e-01  -6.00000000000e-01
       119   6.00000000000e-01  -6.00000000000e-01
       120   7.00000000000e-01  -6.00000000000e-01
       121   8.00000000000e-01  -6.00000000000e-01
       122   9.00000000000e-01  -6.00000000000e-01
       123   1.00000000000e+00  -6.00000000000e-01
       124   1.10000000000e+00  -6.00000000000e-01
       125   1.20000000000e+00  -6.00000000000e-01
       126  -1.20000000000e+00  -5.00000000000e-01
       127  -1.10000000000e+00  -5.00000000000e-01
       128  -1.00000000000e+00  -5.00000000000e-01
       129  -9.00000000000e-01  -5.00000000000e-01
       130  -8.00000000000e-01  -5.00000000000e-01
       131  -7.00000000000e-01  -5.00000000000e-01
       132  -6.00000000000e-01  -5.00000000000e-01
       133  -5.00000000000e-01  -5.00000000000e-01
       134  -4.00000000000e-01  -5.00000000000e-01
       135  -3.00000000000e-01  -5.00000000000e-01
       136  -2.00000000000e-01  -5.00000000000e-01
       137  -1.00000000000e-01  -5.00000000000e-01
       138   0.00000000000e+00  -5.00000000000e-01
       139   1.00000000000e-01  -5.00000000000e-01
       140   2.00000000000e-01  -5.00000000000e-01
       141   3.00000000000e-01  -5.00000000000e-01
       142   4.00000000000e-01  -5.00000000000e-01
       143   5.00000000000e-01  -5.00000000000e-01
       144   6.00000000000e-01  -5.00000000000e-01
       145   7.00000000000e-01  -5.00000000000e-01
       146   8.00000000000e-01  -5.00000000000e-01
       147   9.00000000000e-01  -5.00000000000e-01
       148   1.00000000000e+00  -5.00000000000e-01
       149   1.10000000000e+00  -5.00000000000e-01
       150   1.20000000000e+00  -5.00000000000e-01
       151  -1.20000000000e+00  -4.00000000000e-01
       152  -1.10000000000e+00  -4.00000000000e-01
       153  -1.00000000000e+00  -4.00000000000e-01
       154  -9.00000000000e-01  -4.00000000000e-01
       155  -8.00000000000e-01  -4.00000000000e-01
       156  -7.00000000000e-01  -4.00000000000e-01
       157  -6.00000000000e-01  -4.00000000000e-01
       158  -5.00000000000e-01  -4.00000000000e-01
       159  -4.00000000000e-01  -4.00000000000e-01
       160  -3.00000000000e-01  -4.00000000000e-01
       161  -2.00000000000e-01  -4.00000000000e-01
       162  -1.00000000000e-01  -4.00000000000e-01
       163   0.00000000000e+00  -4.00000000000e-01
       164   1.00000000000e-01  -4.00000000000e-01
       165   2.00000000000e-01  -4.00000000000e-01
       166   3.00000000000e-01  -4.00000000000e-01
       167   4.00000000000e-01  -4.00000000000e-01
       168   5.00000000000e-01  -4.00000000000e-01
       169   6.00000000000e-01  -4.00000000000e-01
       170   7.00000000000e-01  -4.00000000000e-01
       171   8.00000000000e-01  -4.00000000000e-01
       172   9.00000000000e-01  -4.00000000000e-01
       173   1.00000000000e+00  -4.00000000000e-01
       174   1.10000000000e+00  -4.00000000000e-01
       175   1.20000000000e+00  -4.00000000000e-01
       176  -1.20000000000e+00  -3.00000000000e-01
       177  -1.10000000000e+00  -3.00000000000e-01
       178  -1.00000000000e+00  -3.00000000000e-01
       179  -9.00000000000e-01  -3.00000000000e-01
       180  -8.00000000000e-01  -3.00000000000e-01
       181  -7.00000000000e-01  -3.00000000000e-01
       182  -6.00000000000e-01  -3.00000000000e-01
       183  -5.00000000000e-01  -3.00000000000e-01
       184  -4.00000000000e-01  -3.00000000000e-01
       185  -3.00000000000e-01  -3.00000000000e-01
       186  -2.00000000000e-01  -3.00000000000e-01
       187  -1.00000000000e-01  -3.00000000000e-01
       188   0.00000000000e+00  -3.00000000000e-01
       189   1.00000000000e-01  -3.00000000000e-01
       190   2.00000000000e-01  -3.00000000000e-01
       191   3.00000000000e-01  -3.00000000000e-01
       192   4.00000000000e-01  -3.00000000000e-01
       193   5.00000000000e-01  -3.00000000000e-01
       194   6.00000000000e-01  -3.00000000000e-01
       195   7.00000000000e-01  -3.00000000000e-01
       196   8.00000000000e-01  -3.00000000000e-01
       197   9.00000000000e-01  -3.00000000000e-01
       198   1.00000000000e+00  -3.00000000000e-01
       199   1.10000000000e+00  -3.00000000000e-01
       200   1.20000000000e+00  -3.00000000000e-01
       201  -1.20000000000e+00  -2.00000000000e-01
       202  -1.10000000000e+00  -2.00000000000e-01
       203  -1.00000000000e+00  -2.00000000000e-01
       204  -9.00000000000e-01  -2.00000000000e-01
       205  -8.00000000000e-01  -2.00000000000e-01
       206  -7.00000000000e-01  -2.00000000000e-01
       207  -6.00000000000e-01  -2.00000000000e-01
       208  -5.00000000000e-01  -2.00000000000e-01
       209  -4.00000000000e-01  -2.00000000000e-01
       210  -3.00000000000e-01  -2.00000000000e-01
       211  -2.00000000000e-01  -2.00000000000e-01
       212  -1.00000000000e-01  -2.00000000000e-01
       213   0.00000000000e+00  -2.00000000000e-01
       214   1.00000000000e-01  -2.00000000000e-01
       215   2.00000000000e-01  -2.00000000000e-01
       216   3.00000000000e-01  -2.00000000000e-01
       217   4.00000000000e-01  -2.00000000000e-01
       218   5.00000000000e-01  -2.00000000000e-01
       219   6.00000000000e-01  -2.00000000000e-01
       220   7.00000000000e-01  -2.00000000000e-01
       221   8.00000000000e-01  -2.00000000000e-01
       222   9.00000000000e-01  -2.00000000000e-01
       223   1.00000000000e+00  -2.00000000000e-01
       224   1.10000000000e+00  -2.00000000000e-01
       225   1.20000000000e+00  -2.00000000000e-01
       226  -1.20000000000e+00  -1.00000000000e-01
       227  -1.10000000000e+00  -1.00000000000e-01
       228  -1.00000000000e+00  -1.00000000000e-01
       229  -9.00000000000e-01  -1.00000000000e-01
       230  -8.00000000000e-01  -1.00000000000e-01
       231  -7.00000000000e-01  -1.00000000000e-01
       232  -6.00000000000e-01  -1.00000000000e-01
       233  -5.00000000000e-01  -1.00000000000e-01
       234  -4.00000000000e-01  -1.00000000000e-01
       235  -3.00000000000e-01  -1.00000000000e-01
       236  -2.00000000000e-01  -1.00000000000e-01
       237  -1.00000000000e-01  -1.00000000000e-01
       238   0.00000000000e+00  -1.00000000000e-01
       239   1.00000000000e-01  -1.00000000000e-01
       240   2.00000000000e-01  -1.00000000000e-01
       241   3.00000000000e-01  -1.00000000000e-01
       242   4.00000000000e-01  -1.00000000000e-01
       243   5.00000000000e-01  -1.00000000000e-01
       244   6.00000000000e-01  -1.00000000000e-01
       245   7.00000000000e-01  -1.00000000000e-01
       246   8.00000000000e-01  -1.00000000000e-01
       247   9.00000000000e-01  -1.00000000000e-01
       248   1.00000000000e+00  -1.00000000000e-01
       249   1.10000000000e+00  -1.00000000000e-01
       250   1.20000000000e+00  -1.00000000000e-01
       251  -1.20000000000e+00   0.00000000000e+00
       252  -1.10000000000e+00   0.00000000000e+00
       253  -1.00000000000e+00   0.00000000000e+00
       254  -9.00000000000e-01   0.00000000000e+00
       255  -8.00000000000e-01   0.00000000000e+00
       256  -7.00000000000e-01   0.00000000000e+00
       257  -6.00000000000e-01   0.00000000000e+00
       258  -5.00000000000e-01   0.00000000000e+00
       259  -4.00000000000e-01   0.00000000000e+00
       260  -3.00000000000e-01   0.00000000000e+00
       261  -2.00000000000e-01   0.00000000000e+00
       262  -1.00000000000e-01   0.00000000000e+00
       263   0.00000000000e+00   0.00000000000e+00
       264   1.00000000000e-01   0.00000000000e+00
       265   2.00000000000e-01   0.00000000000e+00
       266   3.00000000000e-01   0.00000000000e+00
       267   4.00000000000e-01   0.00000000000e+00
       268   5.00000000000e-01   0.00000000000e+00
       269   6.00000000000e-01   0.00000000000e+00
       270   7.00000000000e-01   0.00000000000e+00
       271   8.00000000000e-01   0.00000000000e+00
       272   9.00000000000e-01   0.00000000000e+00
       273   1.00000000000e+00   0.00000000000e+00
       274   1.10000000000e+00   0.00000000000e+00
       275   1.20000000000e+00   0.00000000000e+00
       276  -1.20000000000e+00   1.00000000000e-01
       277  -1.10000000000e+00   1.00000000000e-01
       278  -1.00000000000e+00   1.00000000000e-01
       279  -9.00000000000e-01   1.00000000000e-01
       280  -8.00000000000e-01   1.00000000000e-01
       281  -7.00000000000e-01   1.00000000000e-01
       282  -6.00000000000e-01   1.00000000000e-01
       283  -5.00000000000e-01   1.00000000000e-01
       284  -4.00000000000e-01   1.00000000000e-01
       285  -3.00000000000e-01   1.00000000000e-01
       286  -2.00000000000e-01   1.00000000000e-01
       287  -1.00000000000e-01   1.00000000000e-01
       288   0.00000000000e+00   1.00000000000e-01
       289   1.00000000000e-01   1.00000000000e-01
       290   2.00000000000e-01   1.00000000000e-01
       291   3.00000000000e-01   1.00000000000e-01
       292   4.00000000000e-01   1.00000000000e-01
       293   5.00000000000e-01   1.00000000000e-01
       294   6.00000000000e-01   1.00000000000e-01
       295   7.00000000000e-01   1.00000000000e-01
       296   8.00000000000e-01   1.00000000000e-01
       297   9.00000000000e-01   1.00000000000e-01
       298   1.00000000000e+00   1.00000000000e-01
       299   1.10000000000e+00   1.00000000000e-01
       300   1.20000000000e+00   1.00000000000e-01
       301  -1.20000000000e+00   2.00000000000e-01
       302  -1.10000000000e+00   2.00000000000e-01
       303  -1.00000000000e+00   2.00000000000e-01
       304  -9.00000000000e-01   2.00000000000e-01
       305  -8.00000000000e-01   2.00000000000e-01
       306  -7.00000000000e-01   2.00000000000e-01
       307  -6.00000000000e-01   2.00000000000e-01
       308  -5.00000000000e-01   2.00000000000e-01
       309  -4.00000000000e-01   2.00000000000e-01
       310  -3.00000000000e-01   2.00000000000e-01
       311  -2.00000000000e-01   2.00000000000e-01
       312  -1.00000000000e-01   2.00000000000e-01
       313   0.00000000000e+00   2.00000000000e-01
       314   1.00000000000e-01   2.00000000000e-01
       315   2.00000000000e-01   2.00000000000e-01
       316   3.00000000000e-01   2.00000000000e-01
       317   4.00000000000e-01   2.00000000000e-01
       318   5.00000000000e-01   2.00000000000e-01
       319   6.00000000000e-01   2.00000000000e-01
       320   7.00000000000e-01   2.00000000000e-01
       321   8.00000000000e-01   2.00000000000e-01
       322   9.00000000000e-01   2.00000000000e-01
       323   1.00000000000e+00   2.00000000000e-01
       324   1.10000000000e+00   2.00000000000e-01
       325   1.20000000000e+00   2.00000000000e-01
       326  -1.20000000000e+00   3.00000000000e-01
       327  -1.10000000000e+00   3.00000000000e-01
       328  -1.00000000000e+00   3.00000000000e-01
       329  -9.00000000000e-01   3.00000000000e-01
       330  -8.00000000000e-01   3.00000000000e-01
       331  -7.00000000000e-01   3.00000000000e-01
       332  -6.00000000000e-01   3.00000000000e-01
       333  -5.00000000000e-01   3.00000000000e-01
       334  -4.00000000000e-01   3.00000000000e-01
       335  -3.00000000000e-01   3.00000000000e-01
       336  -2.00000000000e-01   3.00000000000e-01
       337  -1.00000000000e-01   3.00000000000e-01
       338   0.00000000000e+00   3.00000000000e-01
       339   1.00000000000e-01   3.00000000000e-01
       340   2.00000000000e-01   3.00000000000e-01
       341   3.00000000000e-01   3.00000000000e-01
       342   4.00000000000e-01   3.00000000000e-01
       343   5.00000000000e-01   3.00000000000e-01
       344   6.00000000000e-01   3.00000000000e-01
       345   7.00000000000e-01   3.00000000000e-01
       346   8.00000000000e-01   3.00000000000e-01
       347   9.00000000000e-01   3.00000000000e-01
       348   1.00000000000e+00   3.00000000000e-01
       349   1.10000000000e+00   3.00000000000e-01
       350   1.20000000000e+00   3.00000000000e-01
       351  -1.20000000000e+00   4.00000000000e-01
       352  -1.10000000000e+00   4.00000000000e-01
       353  -1.00000000000e+00   4.00000000000e-01
       354  -9.00000000000e-01   4.00000000000e-01
       355  -8.00000000000e-01   4.00000000000e-01
       356  -7.00000000000e-01   4.00000000000e-01
       357  -6.00000000000e-01   4.00000000000e-01
       358  -5.00000000000e-01   4.00000000000e-01
       359  -4.00000000000e-01   4.00000000000e-01
       360  -3.00000000000e-01   4.00000000000e-01
       361  -2.00000000000e-01   4.00000000000e-01
       362  -1.00000000000e-01   4.00000000000e-01
       363   0.00000000000e+00   4.00000000000e-01
       364   1.00000000000e-01   4.00000000000e-01
       365   2.00000000000e-01   4.00000000000e-01
       366   3.00000000000e-01   4.00000000000e-01
       367   4.00000000000e-01   4.00000000000e-01
       368   5.00000000000e-01   4.00000000000e-01
       369   6.00000000000e-01   4.00000000000e-01
       370   7.00000000000e-01   4.00000000000e-01
       371   8.00000000000e-01   4.00000000000e-01
       372   9.00000000000e-01   4.00000000000e-01
       373   1.00000000000e+00   4.00000000000e-01
       374   1.10000000000e+00   4.00000000000e-01
       375   1.20000000000e+00   4.00000000000e-01
       376  -1.20000000000e+00   5.00000000000e-01
       377  -1.10000000000e+00   5.00000000000e-01
       378  -1.00000000000e+00   5.00000000000e-01
       379  -9.00000000000e-01   5.00000000000e-01
       380  -8.00000000000e-01   5.00000000000e-01
       381  -7.00000000000e-01   5.00000000000e-01
       382  -6.00000000000e-01   5.00000000000e-01
       383  -5.00000000000e-01   5.00000000000e-01
       384  -4.00000000000e-01   5.00000000000e-01
       385  -3.00000000000e-01   5.00000000000e-01
       386  -2.00000000000e-01   5.00000000000e-01
       387  -1.00000000000e-01   5.00000000000e-01
       388   0.00000000000e+00   5.00000000000e-01
       389   1.00000000000e-01   5.00000000000e-01
       390   2.00000000000e-01   5.00000000000e-01
       391   3.00000000000e-01   5.00000000000e-01
       392   4.00000000000e-01   5.00000000000e-01
       393   5.00000000000e-01   5.00000000000e-01
       394   6.00000000000e-01   5.00000000000e-01
       395   7.00000000000e-01   5.00000000000e-01
       396   8.00000000000e-01   5.00000000000e-01
       397   9.00000000000e-01   5.00000000000e-01
       398   1.00000000000e+00   5.00000000000e-01
       399   1.10000000000e+00   5.00000000000e-01
       400   1.20000000000e+00   5.00000000000e-01
       401  -1.20000000000e+00   6.00000000000e-01
       402  -1.10000000000e+00   6.00000000000e-01
       403  -1.00000000000e+00   6.00000000000e-01
       404  -9.00000000000e-01   6.00000000000e-01
       405  -8.00000000000e-01   6.00000000000e-01
       406  -7.00000000000e-01   6.00000000000e-01
       407  -6.00000000000e-01   6.00000000000e-01
       408  -5.00000000000e-01   6.00000000000e-01
       409  -4.00000000000e-01   6.00000000000e-01
       410  -3.00000000000e-01   6.00000000000e-01
       411  -2.00000000000e-01   6.00000000000e-01
       412  -1.00000000000e-01   6.00000000000e-01
       413   0.00000000000e+00   6.00000000000e-01
       414   1.00000000000e-01   6.00000000000e-01
       415   2.00000000000e-01   6.00000000000e-01
       416   3.00000000000e-01   6.00000000000e-01
       417   4.00000000000e-01   6.00000000000e-01
       418   5.00000000000e-01   6.00000000000e-01
       419   6.00000000000e-01   6.00000000000e-01
       420   7.00000000000e-01   6.00000000000e-01
       421   8.00000000000e-01   6.00000000000e-01
       422   9.00000000000e-01   6.00000000000e-01
       423   1.00000000000e+00   6.00000000000e-01
       424   1.10000000000e+00   6.00000000000e-01
       425   1.20000000000e+00   6.00000000000e-01
       426  -1.20000000000e+00   7.00000000000e-01
       427  -1.10000000000e+00   7.00000000000e-01
       428  -1.00000000000e+00   7.00000000000e-01
       429  -9.00000000000e-01   7.00000000000e-01
       430  -8.00000000000e-01   7.00000000000e-01
       431  -7.00000000000e-01   7.00000000000e-01
       432  -6.00000000000e-01   7.00000000000e-01
       433  -5.00000000000e-01   7.00000000000e-01
       434  -4.00000000000e-01   7.00000000000e-01
       435  -3.00000000000e-01   7.00000000000e-01
       436  -2.00000000000e-01   7.00000000000e-01
       437  -1.00000000000e-01   7.00000000000e-01
       438   0.00000000000e+00   7.00000000000e-01
       439   1.00000000000e-01   7.00000000000e-01
       440   2.00000000000e-01   7.00000000000e-01
       441   3.00000000000e-01   7.00000000000e-01
       442   4.00000000000e-01   7.00000000000e-01
       443   5.00000000000e-01   7.00000000000e-01
       444   6.00000000000e-01   7.00000000000e-01
       445   7.00000000000e-01   7.00000000000e-01
       446   8.00000000000e-01   7.00000000000e-01
       447   9.00000000000e-01   7.00000000000e-01
       448   1.00000000000e+00   7.00000000000e-01
       449   1.10000000000e+00   7.00000000000e-01
       450   1.20000000000e+00   7.00000000000e-01
       451  -1.20000000000e+00   8.00000000000e-01
       452  -1.10000000000e+00   8.00000000000e-01
       453  -1.00000000000e+00   8.00000000000e-01
       454  -9.00000000000e-01   8.00000000000e-01
       455  -8.00000000000e-01   8.00000000000e-01
       456  -7.00000000000e-01   8.00000000000e-01
       457  -6.00000000000e-01   8.00000000000e-01
       458  -5.00000000000e-01   8.00000000000e-01
       459  -4.00000000000e-01   8.00000000000e-01
       460  -3.00000000000e-01   8.00000000000e-01
       461  -2.00000000000e-01   8.00000000000e-01
       462  -1.00000000000e-01   8.00000000000e-01
       463   0.00000000000e+00   8.00000000000e-01
       464   1.00000000000e-01   8.00000000000e-01
       465   2.00000000000e-01   8.00000000000e-01
       466   3.00000000000e-01   8.00000000000e-01
       467   4.00000000000e-01   8.00000000000e-01
       468   5.00000000000e-01   8.00000000000e-01
       469   6.00000000000e-01   8.00000000000e-01
       470   7.00000000000e-01   8.00000000000e-01
       471   8.00000000000e-01   8.00000000000e-01
       472   9.00000000000e-01   8.00000000000e-01
       473   1.00000000000e+00   8.00000000000e-01
       474   1.10000000000e+00   8.00000000000e-01
       475   1.20000000000e+00   8.00000000000e-01
       476  -1.20000000000e+00   9.00000000000e-01
       477  -1.10000000000e+00   9.00000000000e-01
       478  -1.00000000000e+00   9.00000000000e-01
       479  -9.00000000000e-01   9.00000000000e-01
       480  -8.00000000000e-01   9.00000000000e-01
       481  -7.00000000000e-01   9.00000000000e-01
       482  -6.00000000000e-01   9.00000000000e-01
       483  -5.00000000000e-01   9.00000000000e-01
       484  -4.00000000000e-01   9.00000000000e-01
       485  -3.00000000000e-01   9.00000000000e-01
       486  -2.00000000000e-01   9.00000000000e-01
       487  -1.00000000000e-01   9.00000000000e-01
       488   0.00000000000e+00   9.00000000000e-01
       489   1.00000000000e-01   9.00000000000e-01
       490   2.00000000000e-01   9.00000000000e-01
       491   3.00000000000e-01   9.00000000000e-01
       492   4.00000000000e-01   9.00000000000e-01
       493   5.00000000000e-01   9.00000000000e-01
       494   6.00000000000e-01   9.00000000000e-01
       495   7.00000000000e-01   9.00000000000e-01
       496   8.00000000000e-01   9.00000000000e-01
       497   9.00000000000e-01   9.00000000000e-01
       498   1.00000000000e+00   9.00000000000e-01
       499   1.10000000000e+00   9.00000000000e-01
       500   1.20000000000e+00   9.00000000000e-01
       501  -1.20000000000e+00   1.00000000000e+00
       502  -1.10000000000e+00   1.00000000000e+00
       503  -1.00000000000e+00   1.00000000000e+00
       504  -9.00000000000e-01   1.00000000000e+00
       505  -8.00000000000e-01   1.00000000000e+00
       506  -7.00000000000e-01   1.00000000000e+00
       507  -6.00000000000e-01   1.00000000000e+00
       508  -5.00000000000e-01   1.00000000000e+00
       509  -4.00000000000e-01   1.00000000000e+00
       510  -3.00000000000e-01   1.00000000000e+00
       511  -2.00000000000e-01   1.00000000000e+00
       512  -1.00000000000e-01   1.00000000000e+00
       513   0.00000000000e+00   1.00000000000e+00
       514   1.00000000000e-01   1.00000000000e+00
       515   2.00000000000e-01   1.00000000000e+00
       516   3.00000000000e-01   1.00000000000e+00
       517   4.00000000000e-01   1.00000000000e+00
       518   5.00000000000e-01   1.00000000000e+00
       519   6.00000000000e-01   1.00000000000e+00
       520   7.00000000000e-01   1.00000000000e+00
       521   8.00000000000e-01   1.00000000000e+00
       522   9.00000000000e-01   1.00000000000e+00
       523   1.00000000000e+00   1.00000000000e+00
       524   1.10000000000e+00   1.00000000000e+00
       525   1.20000000000e+00   1.00000000000e+00
ENDOFSECTION
      ELEMENTS/CELLS 2.3.16
       1  2  9      157     158     159     184     209     208     207
                    182     183
       2  2  9      159     160     161     186     211     210     209
                    184     185
       3  2  9      161     162     163     188     213     212     211
                    186     187
       4  2  9      163     164     165     190     215     214     213
                    188     189
       5  2  9      165     166     167     192     217     216     215
                    190     191
       6  2  9      167     168     169     194     219     218     217
                    192     193
       7  2  9      207     208     209     234     259     258     257
                    232     233
       8  2  9      209     210     211     236     261     260     259
                    234     235
       9  2  9      211     212     213     238     263     262     261
                    236     237
      10  2  9      213     214     215     240     265     264     263
                    238     239
      11  2  9      215     216     217     242     267     266     265
                    240     241
      12  2  9      217     218     219     244     269     268     267
                    242     243
      13  2  9      257     258     259     284     309     308     307
                    282     283
      14  2  9      259     260     261     286     311     310     309
                    284     285
      15  2  9      261     262     263     288     313     312     311
                    286     287
      16  2  9      263     264     265     290     315     314     313
                    288     289
      17  2  9      265     266     267     292     317     316     315
                    290     291
      18  2  9      267     268     269     294     319     318     317
                    292     293
      19  2  9      307     308     309     334     359     358     357
                    332     333
      20  2  9      309     310     311     336     361     360     359
                    334     335
      21  2  9      311     312     313     338     363     362     361
                    336     337
      22  2  9      313     314     315     340     365     364     363
                    338     339
      23  2  9      315     316     317     342     367     366     365
                    340     341
      24  2  9      317     318     319     344     369     368     367
                    342     343
      25  2  9        1       2       3      28      53      52      51
                     26      27
      26  2  9        3       4       5      30      55      54      53
                     28      29
      27  2  9        5       6       7      32      57      56      55
                     30      31
      28  2  9        7       8       9      34      59      58      57
                     32      33
      29  2  9        9      10      11      36      61      60      59
                     34      35
      30  2  9       11      12      13      38      63      62      61
                     36      37
      31  2  9       13      14      15      40      65      64      63
                     38      39
      32  2  9       15      16      17      42      67      66      65
                     40      41
      33  2  9       17      18      19      44      69      68      67
                     42      43
      34  2  9       19      20      21      46      71      70      69
                     44      45
      35  2  9       21      22      23      48      73      72      71
                     46      47
      36  2  9       23      24      25      50      75      74      73
                     48      49
      37  2  9       51      52      53      78     103     102     101
                     76      77
      38  2  9       53      54      55      80     105     104     103
                     78      79
      39  2  9       55      56      57      82     107     106     105
                     80      81
      40  2  9       57      58      59      84     109     108     107
                     82      83
      41  2  9       59      60      61      86     111     110     109
                     84      85
      42  2  9       61      62      63      88     113     112     111
                     86      87
      43  2  9       63      64      65      90     115     114     113
                     88      89
      44  2  9       65      66      67      92     117     116     115
                     90      91
      45  2  9       67      68      69      94     119     118     117
                     92      93
      46  2  9       69      70      71      96     121     120     119
                     94      95
      47  2  9       71      72      73      98     123     122     121
                     96      97
      48  2  9       73      74      75     100     125     124     123
                     98      99
      49  2  9      101     102     103     128     153     152     151
                    126     127
      50  2  9      103     104     105     130     155     154     153
                    128     129
      51  2  9      105     106     107     132     157     156     155
                    130     131
      52  2  9      107     108     109     134     159     158     157
                    132     133
      53  2  9      109     110     111     136     161     160     159
                    134     135
      54  2  9      111     112     113     138     163     162     161
                    136     137
      55  2  9      113     114     115     140     165     164     163
                    138     139
      56  2  9      115     116     117     142     167     166     165
                    140     141
      57  2  9      117     118     119     144     169     168     167
                    142     143
      58  2  9      119     120     121     146     171     170     169
                    144     145
      59  2  9      121     122     123     148     173     172     171
                    146     147
      60  2  9      123     124     125     150     175     174     173
                    148     149
      61  2  9      151     152     153     178     203     202     201
                    176     177
      62  2  9      153     154     155     180     205     204     203
                    178     179
      63  2  9      155     156     157     182     207     206     205
                    180     181
      64  2  9      169     170     171     196     221     220     219
                    194     195
      65  2  9      171     172     173     198     223     222     221
                    196     197
      66  2  9      173     174     175     200     225     224     223
                    198     199
      67  2  9      201     202     203     228     253     252     251
                    226     227
      68  2  9      203     204     205     230     255     254     253
                    228     229
      69  2  9      205     206     207     232     257     256     255
                    230     231
      70  2  9      219     220     221     246     271     270     269
                    244     245
      71  2  9      221     222     223     248     273     272     271
                    246     247
      72  2  9      223     224     225     250     275     274     273
                    248     249
      73  2  9      251     252     253     278     303     302     301
                    276     277
      74  2  9      253     254     255     280     305     304     303
                    278     279
      75  2  9      255     256     257     282     307     306     305
                    280     281
      76  2  9      269     270     271     296     321     320     319
                    294     295
      77  2  9      271     272     273     298     323     322     321
                    296     297
      78  2  9      273     274     275     300     325     324     323
                    298     299
      79  2  9      301     302     303     328     353     352     351
                    326     327
      80  2  9      303     304     305     330     355     354     353
                    328     329
      81  2  9      305     306     307     332     357     356     355
                    330     331
      82  2  9      319     320     321     346     371     370     369
                    344     345
      83  2  9      321     322     323     348     373     372     371
                    346     347
      84  2  9      323     324     325     350     375     374     373
                    348     349
      85  2  9      351     352     353     378     403     402     401
                    376     377
      86  2  9      353     354     355     380     405     404     403
                    378     379
      87  2  9      355     356     357     382     407     406     405
                    380     381
      88  2  9      357     358     359     384     409     408     407
                    382     383
      89  2  9      359     360     361     386     411     410     409
                    384     385
      90  2  9      361     362     363     388     413     412     411
                    386     387
      91  2  9      363     364     365     390     415     414     413
                    388     389
      92  2  9      365     366     367     392     417     416     415
                    390     391
      93  2  9      367     368     369     394     419     418     417
                    392     393
      94  2  9      369     370     371     396     421     420     419
                    394     395
      95  2  9      371     372     373     398     423     422     421
                    396     397
      96  2  9      373     374     375     400     425     424     423
                    398     399
      97  2  9      401     402     403     428     453     452     451
                    426     427
      98  2  9      403     404     405     430     455     454     453
                    428     429
      99  2  9      405     406     407     432     457     456     455
                    430     431
     100  2  9      407     408     409     434     459     458     457
                    432     433
     101  2  9      409     410     411     436     461     460     459
                    434     435
     102  2  9      411     412     413     438     463     462     461
                    436     437
     103  2  9      413     414     415     440     465     464     463
                    438     439
     104  2  9      415     416     417     442     467     466     465
                    440     441
     105  2  9      417     418     419     444     469     468     467
                    442     443
     106  2  9      419     420     421     446     471     470     469
                    444     445
     107  2  9      421     422     423     448     473     472     471
                    446     447
     108  2  9      423     424     425     450     475     474     473
                    448     449
     109  2  9      451     452     453     478     503     502     501
                    476     477
     110  2  9      453     454     455     480     505     504     503
                    478     479
     111  2  9      455     456     457     482     507     506     505
                    480     481
     112  2  9      457     458     459     484     509     508     507
                    482     483
     113  2  9      459     460     461     486     511     510     509
                    484     485
     114  2  9      461     462     463     488     513     512     511
                    486     487
     115  2  9      463     464     465     490     515     514     513
                    488     489
     116  2  9      465     466     467     492     517     516     515
                    490     491
     117  2  9      467     468     469     494     519     518     517
                    492     493
     118  2  9      469     470     471     496     521     520     519
                    494     495
     119  2  9      471     472     473     498     523     522     521
                    496     497
     120  2  9      473     474     475     500     525     524     523
                    498     499
ENDOFSECTION
       ELEMENT GROUP 2.3.16
GROUP:          1 ELEMENTS:         96 MATERIAL:          4 NFLAGS:          1
                               5
       0
      25      26      27      28      29      30      31      32      33      34
      35      36      37      38      39      40      41      42      43      44
      45      46      47      48      49      50      51      52      53      54
      55      56      57      58      59      60      61      62      63      64
      65      66      67      68      69      70      71      72      73      74
      75      76      77      78      79      80      81      82      83      84
      85      86      87      88      89      90      91      92      93      94
      95      96      97      98      99     100     101     102     103     104
     105     106     107     108     109     110     111     112     113     114
     115     116     117     118     119     120
ENDOFSECTION
       ELEMENT GROUP 2.3.16
GROUP:          2 ELEMENTS:         24 MATERIAL:          2 NFLAGS:          1
                               7
       0
       1       2       3       4       5       6       7       8       9      10
      11      12      13      14      15      16      17      18      19      20
      21      22      23      24
ENDOFSECTION
 BOUNDARY CONDITIONS 2.3.16
                               1       1      44       0       6
        25    2    1
        25    2    4
        26    2    1
        27    2    1
        28    2    1
        29    2    1
        30    2    1
        31    2    1
        32    2    1
        33    2    1
        34    2    1
        35    2    1
        36    2    1
        36    2    2
        37    2    4
        48    2    2
        49    2    4
        60    2    2
        61    2    4
        66    2    2
        67    2    4
        72    2    2
        73    2    4
        78    2    2
        79    2    4
        84    2    2
        85    2    4
        96    2    2
        97    2    4
       108    2    2
       109    2    3
       109    2    4
       110    2    3
       111    2    3
       112    2    3
       113    2    3
       114    2    3
       115    2    3
       116    2    3
       117    2    3
       118    2    3
       119    2    3
       120    2    2
       120    2    3
ENDOFSECTION
